<?xml version="1.0" encoding="UTF-8" standalone="no"?>
<!-- Created with Inkscape (http://www.inkscape.org/) -->

<svg
   xmlns:dc="http://purl.org/dc/elements/1.1/"
   xmlns:cc="http://creativecommons.org/ns#"
   xmlns:rdf="http://www.w3.org/1999/02/22-rdf-syntax-ns#"
   xmlns:svg="http://www.w3.org/2000/svg"
   xmlns="http://www.w3.org/2000/svg"
   xmlns:sodipodi="http://sodipodi.sourceforge.net/DTD/sodipodi-0.dtd"
   xmlns:inkscape="http://www.inkscape.org/namespaces/inkscape"
   version="1.1"
   id="svg3713"
   width="250.16331"
   height="67.777237"
   viewBox="0 0 250.16331 67.777237"
   sodipodi:docname="vcsoft.svg"
   inkscape:version="0.92.4 (5da689c313, 2019-01-14)">
  <metadata
     id="metadata3719">
    <rdf:RDF>
      <cc:Work
         rdf:about="">
        <dc:format>image/svg+xml</dc:format>
        <dc:type
           rdf:resource="http://purl.org/dc/dcmitype/StillImage" />
        <dc:title></dc:title>
      </cc:Work>
    </rdf:RDF>
  </metadata>
  <defs
     id="defs3717" />
  <sodipodi:namedview
     pagecolor="#ffffff"
     bordercolor="#666666"
     borderopacity="1"
     objecttolerance="10"
     gridtolerance="10"
     guidetolerance="10"
     inkscape:pageopacity="0"
     inkscape:pageshadow="2"
     inkscape:window-width="1366"
     inkscape:window-height="697"
     id="namedview3715"
     showgrid="false"
     inkscape:zoom="2.1117999"
     inkscape:cx="83.131572"
     inkscape:cy="-9.5220409"
     inkscape:window-x="1912"
     inkscape:window-y="299"
     inkscape:window-maximized="1"
     inkscape:current-layer="svg3713" />
  <g
     id="g4790"
     transform="translate(-503.11285,-97.294164)">
    <path
       style="fill:#e6e6e6;fill-opacity:1;stroke-width:0.31999999"
       d="m 611.49516,164.61543 c -0.90446,-0.39373 -1.40789,-1.04068 -1.40789,-1.80923 0,-0.50461 1.66972,-0.3208 2.071,0.22798 0.50489,0.69048 3.26729,0.92294 4.329,0.3643 0.50582,-0.26615 0.83827,-0.75254 0.90407,-1.32273 0.0948,-0.82162 0.0379,-0.87785 -0.64,-0.63258 -0.40924,0.14806 -1.64148,0.2692 -2.73833,0.2692 -1.80612,0 -2.08836,-0.0941 -2.99182,-0.99797 -3.5139,-3.51535 0.16631,-9.2833 4.88571,-7.65734 0.93954,0.3237 1.47176,0.36504 1.74799,0.13579 0.21843,-0.18128 0.72908,-0.28255 1.13477,-0.22504 0.73205,0.10377 0.73737,0.1385 0.70557,4.61169 -0.0387,5.44514 -0.17142,6.05364 -1.49655,6.8616 -1.23862,0.75522 -4.94115,0.85447 -6.50352,0.17433 z m 5.22981,-4.74328 c 0.21874,-0.17288 0.54687,-0.86829 0.72919,-1.54535 0.87533,-3.25075 -2.52703,-5.50352 -4.8315,-3.19904 -1.70092,1.70091 -0.93168,4.9522 1.23165,5.20579 1.13394,0.13292 2.3701,-0.0658 2.87066,-0.4614 z m -108.8777,1.54667 c -1.19255,-0.53231 -2.56994,-1.97704 -3.01964,-3.16728 -0.1872,-0.49546 -0.33982,-1.71946 -0.33916,-2.72 0.002,-3.67728 2.42485,-5.85829 6.52648,-5.87606 3.16002,-0.0137 5.95232,1.57486 5.95232,3.38629 0,0.85057 -2.01334,0.67997 -2.40412,-0.20372 -0.43636,-0.98676 -1.63604,-1.51538 -3.45177,-1.52096 -2.99013,-0.009 -4.38411,1.46111 -4.38411,4.62409 0,1.56959 0.12559,1.91763 1.05985,2.93709 0.88396,0.96456 1.32788,1.18225 2.67496,1.31168 2.17919,0.20939 3.78523,-0.54977 4.32584,-2.0448 0.34925,-0.96583 0.51942,-1.09111 1.36909,-1.00785 0.82836,0.0812 0.95575,0.21207 0.87108,0.89507 -0.1429,1.1526 -1.05575,2.29408 -2.49091,3.11474 -1.46639,0.83852 -5.0903,0.98571 -6.68991,0.27171 z m 24,-0.022 c -2.35231,-1.10395 -3.36,-2.78475 -3.36,-5.60443 0,-2.14592 0.4358,-3.23809 1.81143,-4.53964 1.26929,-1.20094 2.48517,-1.58561 4.98685,-1.5777 2.86844,0.009 4.70469,0.82177 5.88435,2.60436 0.75262,1.13729 0.88913,1.67666 0.88913,3.51298 0,2.69914 -0.95447,4.36663 -3.09168,5.40123 -1.67701,0.81183 -5.5855,0.92337 -7.12008,0.20319 z m 5.93047,-1.60984 c 1.22855,-0.6353 2.02206,-2.20289 2.02206,-3.99458 0,-2.93115 -1.61133,-4.48095 -4.65664,-4.4788 -1.95975,0.001 -3.95859,0.98114 -3.64878,1.78849 0.10206,0.26595 0.0583,0.4049 -0.0972,0.30877 -0.73639,-0.45511 -0.93442,3.62393 -0.23695,4.88082 1.02716,1.85103 4.43888,2.62194 6.61755,1.4953 z m 8.71583,1.61099 c -1.95858,-0.85144 -2.32375,-1.97376 -2.3251,-7.14584 l -10e-4,-4.58029 1.04,0.10028 1.04,0.10027 0.0891,4.41325 c 0.049,2.42729 0.21275,4.33684 0.36387,4.24345 0.15111,-0.0934 0.25501,0.0775 0.23088,0.37967 -0.0616,0.77096 2.19289,1.52551 3.70842,1.2412 0.63912,-0.1199 1.49632,-0.48835 1.90487,-0.81877 0.70352,-0.56898 0.74837,-0.84039 0.84735,-5.12823 l 0.10451,-4.52746 1.01549,0.0984 1.01549,0.0984 v 4.53738 c 0,5.09044 -0.24639,5.79237 -2.42275,6.90213 -1.35204,0.68942 -5.11049,0.73835 -6.61095,0.0861 z m 48.5537,0.24877 c -0.8342,-0.33075 -0.95008,-0.81781 -0.9551,-4.01435 -0.005,-3.11336 -0.007,-3.12 -0.8049,-3.12 -0.64,0 -0.8,-0.16 -0.8,-0.8 0,-0.64 0.16,-0.8 0.8,-0.8 0.70095,0 0.8,-0.13866 0.8,-1.12 0,-1.03111 0.0762,-1.12 0.96,-1.12 0.88381,0 0.96,0.0889 0.96,1.12 0,1.03111 0.0762,1.12 0.96,1.12 0.81067,0 0.96,0.12445 0.96,0.8 0,0.67784 -0.1485,0.8 -0.97246,0.8 h -0.97246 l 0.0925,2.8 0.0925,2.8 0.89923,0.10311 c 0.71704,0.0822 0.87912,0.2443 0.8,0.8 -0.0782,0.54933 -0.33638,0.71009 -1.21923,0.75922 -0.616,0.0343 -1.336,-0.0233 -1.6,-0.12798 z m 5.04505,-1.054 c -1.27281,-1.27281 -1.27894,-1.29083 -1.14657,-3.36963 0.11527,-1.8103 0.26326,-2.22015 1.10592,-3.06281 2.77101,-2.77101 8.04357,-1.29078 8.21034,2.30499 l 0.0653,1.4071 -3.52,0.0698 c -1.936,0.0384 -3.61452,0.0744 -3.73004,0.08 -0.11552,0.006 -0.13358,0.30259 -0.0401,0.65997 0.25585,0.97839 1.3555,1.59021 2.85814,1.59021 1.05413,0 1.48186,-0.17327 1.97485,-0.8 0.38363,-0.4877 0.95482,-0.8 1.46322,-0.8 0.95114,0 1.05946,0.49564 0.33453,1.53063 -0.79494,1.13492 -2.17873,1.66937 -4.32234,1.66937 -1.8757,0 -2.03697,-0.0634 -3.25319,-1.27965 z m 6.15495,-4.61712 c 0,-0.6576 -1.55223,-1.78323 -2.45905,-1.78323 -1.11579,0 -2.552,0.82882 -2.75032,1.58719 -0.16183,0.61885 -0.0308,0.65281 2.51933,0.65281 2.11702,0 2.69004,-0.0973 2.69004,-0.45677 z m 22.58989,5.17677 c -2.00956,-1.79559 -0.8502,-4.15084 2.23808,-4.54666 3.65268,-0.46816 3.69838,-0.48375 3.5919,-1.22513 -0.12808,-0.89173 -1.40567,-1.34464 -2.96685,-1.05176 -0.80398,0.15083 -1.25777,0.43148 -1.36583,0.84471 -0.22848,0.87369 -2.00719,0.88015 -2.00719,0.007 0,-1.60342 3.30304,-2.89514 5.8634,-2.29301 2.16491,0.50914 2.4566,1.01545 2.4566,4.26412 0,2.61561 0.0562,2.87505 0.65679,3.03211 0.44819,0.11721 0.62605,0.38718 0.56,0.85004 -0.13594,0.95261 -1.984,1.13831 -2.53576,0.25481 -0.38133,-0.61061 -0.40617,-0.61098 -1.37469,-0.0204 -1.44385,0.88046 -4.06775,0.8209 -5.11645,-0.11613 z m 3.99628,-0.88 c 0.8438,0 1.89383,-1.12279 1.89383,-2.02506 0,-0.73377 -0.0303,-0.74036 -2,-0.43425 -2.23957,0.34806 -2.8,0.65806 -2.8,1.54881 0,0.64413 1.14356,1.28786 1.86617,1.05049 0.2344,-0.077 0.7024,-0.13999 1.04,-0.13999 z m 7.65383,1.37435 c -0.8342,-0.33075 -0.95008,-0.81781 -0.9551,-4.01435 -0.005,-3.11336 -0.007,-3.12 -0.8049,-3.12 -0.64,0 -0.8,-0.16 -0.8,-0.8 0,-0.64 0.16,-0.8 0.8,-0.8 0.70095,0 0.8,-0.13866 0.8,-1.12 0,-1.03111 0.0762,-1.12 0.96,-1.12 0.88381,0 0.96,0.0889 0.96,1.12 0,1.03111 0.0762,1.12 0.96,1.12 0.81067,0 0.96,0.12445 0.96,0.8 0,0.67784 -0.1485,0.8 -0.97246,0.8 h -0.97246 l 0.0925,2.8 0.0925,2.8 0.89923,0.10311 c 0.71704,0.0822 0.87912,0.2443 0.8,0.8 -0.0782,0.54933 -0.33638,0.71009 -1.21923,0.75922 -0.616,0.0343 -1.336,-0.0233 -1.6,-0.12798 z m 6.2139,-0.0844 c -0.36635,-0.14821 -1.05035,-0.72613 -1.52,-1.28427 -0.7154,-0.8502 -0.8539,-1.32301 -0.8539,-2.91495 0,-1.70123 0.10988,-2.02005 1.04969,-3.04556 1.22605,-1.33785 3.04591,-1.81538 5.13228,-1.34673 1.6577,0.37237 2.68035,1.30126 3.14687,2.85835 0.62687,2.09231 0.4397,2.20319 -3.7188,2.20319 -2.02952,0 -3.69004,0.0858 -3.69004,0.1906 0,0.10484 0.2978,0.60884 0.66179,1.12 0.57504,0.80757 0.86563,0.9294 2.21677,0.9294 1.27751,0 1.66728,-0.14275 2.18427,-0.8 0.66597,-0.84664 2.29717,-1.12443 2.29717,-0.3912 0,0.74874 -1.0307,1.8934 -2.11154,2.345 -1.16923,0.48854 -3.74285,0.56163 -4.79456,0.13617 z m 4.9861,-5.58674 c 0,-0.68007 -1.566,-1.78391 -2.52316,-1.77851 -1.17523,0.007 -2.32329,0.6673 -2.63314,1.51528 -0.25967,0.7107 -0.22805,0.72 2.44661,0.72 2.13405,0 2.70969,-0.097 2.70969,-0.45677 z m 5.34994,5.32826 c -2.24116,-1.38863 -2.72272,-5.12808 -0.91026,-7.06833 1.49201,-1.59719 4.75644,-1.94787 6.28939,-0.67563 0.40651,0.33737 0.47093,0.10095 0.47093,-1.72835 v -2.11918 h 0.96 0.96 v 5.92 5.92 h -0.96 c -0.528,0 -0.96,-0.1477 -0.96,-0.32822 0,-0.18813 -0.40294,-0.11985 -0.94411,0.16 -1.26044,0.6518 -3.79125,0.61038 -4.90595,-0.0803 z m 5.21726,-1.91332 c 0.859,-1.09204 0.8595,-3.37146 9.6e-4,-4.23003 -1.25567,-1.25567 -3.28083,-1.23031 -4.47928,0.0561 -0.87403,0.93816 -0.87496,3.08203 -0.002,4.19205 1.05699,1.34374 3.41643,1.33421 4.48016,-0.0181 z m 12.6328,2.03011 c -1.23597,-0.54933 -2.29431,-1.71359 -2.57097,-2.82828 -0.20793,-0.83777 -0.163,-0.88 0.93628,-0.88 0.83249,0 1.15469,0.13921 1.15469,0.49889 0,0.27439 0.14235,0.4109 0.31634,0.30338 0.17829,-0.1102 0.23679,0.0118 0.13406,0.27948 -0.51934,1.35337 4.20942,2.02405 5.74644,0.81503 1.70201,-1.3388 0.75083,-2.29021 -3.2031,-3.20388 -3.77935,-0.87333 -4.59374,-1.45842 -4.59374,-3.30034 0,-2.16908 1.71013,-3.41214 4.75357,-3.45529 3.25448,-0.0462 5.48643,1.23364 5.48643,3.14589 0,1.20318 -1.57582,1.02222 -2.4,-0.27561 -0.36217,-0.5703 -1.05675,-1.12252 -1.6,-1.27205 -1.31596,-0.36224 -3.18994,-0.0138 -3.85031,0.7159 -1.11923,1.23673 0.0922,2.13089 4.06883,3.00333 3.78146,0.82961 4.94413,2.15495 3.95895,4.51283 -0.6451,1.54392 -2.51219,2.38025 -5.29747,2.37289 -1.144,-0.003 -2.512,-0.1975 -3.04,-0.43217 z m 12.4063,-0.0227 c -1.63486,-0.71072 -2.38502,-2.20153 -2.24017,-4.45195 0.10892,-1.69216 0.24203,-1.99691 1.29295,-2.96 1.19835,-1.09821 1.92897,-1.27542 4.53449,-1.0998 2.49472,0.16814 3.87809,1.47034 4.18959,3.94376 0.21479,1.70551 -0.55038,3.30054 -2.07048,4.31604 -1.2799,0.85503 -4.03891,0.97685 -5.70638,0.25195 z m 5.01047,-1.96873 c 0.88924,-1.13047 0.89652,-3.26575 0.0144,-4.21263 -1.14685,-1.231 -3.27068,-1.30359 -4.54488,-0.15535 -1.19314,1.07519 -0.9721,4.11316 0.3557,4.88899 0.28492,0.16648 1.19159,0.30707 2.01481,0.31242 1.24217,0.008 1.6096,-0.1337 2.16,-0.83343 z m 10.69747,2.12585 c -1.40412,-0.56665 -1.71424,-1.50992 -1.71424,-5.21418 v -3.46908 l 0.99714,0.10028 0.99714,0.10027 0.0429,3.29186 c 0.048,3.68307 0.16834,3.89497 2.2174,3.90324 0.86722,0.003 1.43917,-0.21972 2,-0.78055 0.71817,-0.71816 0.78546,-1.03345 0.78546,-3.68 v -2.89455 h 0.96 0.96 v 4.32 4.32 h -0.96 c -0.528,0 -0.96,-0.13665 -0.96,-0.30367 0,-0.16702 -0.49938,-0.095 -1.10972,0.16 -1.22051,0.50996 -3.14914,0.57691 -4.21604,0.14637 z m 11.08576,0.0952 c -1.03041,-0.36825 -1.28,-1.1749 -1.28,-4.13683 0,-2.82245 -0.0327,-2.96122 -0.72,-3.05884 -0.47258,-0.0671 -0.72,-0.32218 -0.72,-0.74225 0,-0.42008 0.24742,-0.67514 0.72,-0.74226 0.58687,-0.0834 0.72,-0.30523 0.72,-1.2 0,-1.04123 0.0577,-1.09774 1.12,-1.09774 1.06667,0 1.12,0.0533 1.12,1.12 0,0.96671 0.10438,1.12 0.76268,1.12 0.48598,0 0.82164,0.22547 0.9252,0.62147 0.20266,0.77499 0.007,0.97853 -0.94121,0.97853 -0.72692,0 -0.74667,0.0762 -0.74667,2.88 0,2.80381 0.0197,2.88 0.74667,2.88 0.98916,0 1.21884,0.27703 0.83081,1.00207 -0.31282,0.58452 -1.47285,0.75634 -2.53748,0.37585 z m 10.3263,-0.25235 c -1.61724,-0.70306 -2.38468,-2.20538 -2.24439,-4.39358 0.12743,-1.9877 0.65867,-2.83509 2.31733,-3.69643 1.2532,-0.65079 4.20533,-0.64194 5.47324,0.0164 2.98732,1.55111 3.05519,6.41445 0.11048,7.91673 -1.46431,0.74704 -4.12913,0.82094 -5.65666,0.15688 z m 5.03974,-2.00593 c 1.30905,-1.66419 0.59112,-4.44386 -1.30304,-5.04504 -0.98504,-0.31264 -2.69095,0.0849 -3.31275,0.77197 -0.81126,0.89644 -0.98543,2.64512 -0.38005,3.81579 0.88821,1.71762 3.79516,1.98369 4.99584,0.45728 z m 17.07816,2.16674 c -0.79196,-0.32 -2.0442,-1.82055 -2.0442,-2.44955 0,-0.78314 1.68052,-0.50638 2.39937,0.39515 0.49435,0.61997 0.95795,0.832 1.81914,0.832 1.81887,0 2.55325,-0.33852 2.44015,-1.12482 -0.0823,-0.5723 -0.54458,-0.79914 -2.79191,-1.37007 -1.62115,-0.41185 -2.86313,-0.91653 -3.12,-1.26782 -1.21755,-1.6651 0.23836,-3.50848 2.93325,-3.71391 2.11128,-0.16093 3.12438,0.0878 4.02461,0.98801 0.51447,0.51446 0.93539,1.09046 0.93539,1.28 0,0.57688 -1.60796,0.3848 -2.47268,-0.29539 -0.9923,-0.78054 -2.73001,-0.8316 -3.45995,-0.10165 -0.50446,0.50446 -0.50404,0.56342 0.007,0.93686 0.29975,0.21918 1.14371,0.49817 1.87548,0.61999 2.13716,0.35575 3.75484,1.1272 4.06293,1.93755 0.43629,1.1475 -0.2111,2.55675 -1.44308,3.14136 -1.13392,0.53808 -4.04143,0.64631 -5.16516,0.19227 z m -227.41918,-5.84638 0.065,-5.84002 h 1.04061 1.04062 l 0.0144,4.96 0.0144,4.96 3.6,0.0905 c 3.58948,0.0902 3.6,0.0928 3.6,0.88 v 0.78952 l -4.72,2e-5 -4.72,3e-5 z m 39.13498,-0.08 v -5.92 l 2.96,0.0139 c 4.87867,0.023 6.47755,0.54948 8.04528,2.64929 1.026,1.37421 1.0867,4.47921 0.12277,6.2799 -1.2409,2.3181 -2.70703,2.89686 -7.33838,2.89686 h -3.78967 z m 7.86188,3.66648 c 1.27653,-0.78894 1.87682,-2.37434 1.65252,-4.36435 -0.28095,-2.49258 -2.01777,-3.61654 -5.5944,-3.62034 l -1.68,-0.002 v 4.32 4.32 h 2.28223 c 1.73945,0 2.53371,-0.15542 3.33965,-0.65352 z m 11.65812,-3.6462 v -5.94028 h 0.9539 c 1.26709,0 1.32884,0.3327 1.21758,6.56 l -0.0915,5.12 -1.04,0.10028 -1.04,0.10027 z m 4.8,1.57972 v -4.32 h 0.96 c 0.65554,0 0.96,0.15799 0.96,0.49815 0,0.45086 0.0675,0.45086 0.7112,0 0.44708,-0.31315 1.40694,-0.49815 2.58462,-0.49815 1.64395,0 1.98798,0.11457 2.80879,0.93539 0.91594,0.91593 0.93539,1.00577 0.93539,4.32 v 3.38461 h -1.12 -1.12 v -3.36792 -3.36792 l -0.88,-0.33672 c -1.11874,-0.42807 -3.13467,0.12308 -3.59478,0.98281 -0.17887,0.33422 -0.32522,1.84114 -0.32522,3.34872 v 2.74103 h -0.96 -0.96 z m 39.36,0 v -4.32 h 0.96 c 0.65554,0 0.96,0.15799 0.96,0.49815 0,0.45086 0.0675,0.45086 0.7112,0 0.39116,-0.27398 1.11116,-0.49815 1.6,-0.49815 0.72225,0 0.8888,0.14242 0.8888,0.76 0,0.59823 -0.21691,0.80338 -1.019,0.9638 -1.88556,0.37711 -2.181,0.93058 -2.181,4.0858 v 2.8304 h -0.96 -0.96 z m 74.95278,-1.52 0.0872,-5.84 h 0.96 0.96 l 0.0872,5.84 0.0872,5.84 h -1.13444 -1.13444 z m 21.36722,1.52 v -4.32 h 0.96 0.96 v 4.32 4.32 h -0.96 -0.96 z m 15.75071,0.08 0.0893,-4.24 0.88,-0.10125 c 0.63391,-0.0729 0.88,0.0412 0.88,0.40822 0,0.46311 0.092,0.46188 1.01131,-0.0135 1.33943,-0.69265 4.45537,-0.49811 5.3767,0.33568 0.583,0.52761 0.65199,0.97418 0.65199,4.22045 v 3.63041 h -0.96 -0.96 v -3.19262 c 0,-3.03828 -0.038,-3.21755 -0.787,-3.70828 -0.55168,-0.36148 -1.10184,-0.44872 -1.84,-0.29177 -1.93476,0.41139 -2.173,0.8721 -2.173,4.20227 v 2.9904 h -1.12929 -1.12929 z m -15.75071,-6.64 c 0,-0.85333 0.10667,-0.96 0.96,-0.96 0.85333,0 0.96,0.10667 0.96,0.96 0,0.85334 -0.10667,0.96 -0.96,0.96 -0.85333,0 -0.96,-0.10666 -0.96,-0.96 z m -199.2,-7.66961 -15.68,-0.17039 -0.18009,-11.28 c -0.0991,-6.204 -0.0991,-16.356 0,-22.56 l 0.18009,-11.279998 3.2,-0.223171 c 4.1213,-0.287422 74.86221,-0.244477 75.33178,0.04573 0.19877,0.122846 -0.86628,0.888332 -2.42187,1.740675 -3.42103,1.874464 -5.16915,3.281584 -7.34027,5.908464 -5.67807,6.86996 -6.79276,16.71653 -2.813,24.8483 2.30085,4.70128 6.82476,8.96048 11.56061,10.88415 3.77844,1.53478 4.10911,1.70672 3.59771,1.87077 -0.76355,0.24494 -48.31356,0.40152 -65.43496,0.21547 z m 41.28,-10.94965 c 2.93367,-0.73281 4.32,-2.97857 4.32,-6.99811 v -1.8212 l -1.52,-0.13771 c -0.836,-0.0757 -2.204,-0.0796 -3.04,-0.008 -1.34418,0.11427 -1.52,0.21596 -1.52,0.87915 0,0.41246 -0.34743,1.15397 -0.77206,1.64778 l -0.77206,0.89784 h -5.38794 c -2.96337,0 -5.78212,-0.11028 -6.26389,-0.24508 -1.64913,-0.4614 -2.00405,-1.52059 -2.00405,-5.98068 0,-6.908 0.3334,-7.21424 7.85407,-7.21424 5.90515,0 6.8867,0.27615 7.084,1.99301 l 0.10193,0.88699 2.85294,0.0932 c 1.78815,0.0584 2.93229,-0.0352 3.06556,-0.2508 0.26842,-0.43432 -0.20173,-4.0314 -0.68083,-5.20891 -0.45443,-1.11688 -1.85971,-2.31235 -3.26233,-2.77525 -2.92516,-0.96539 -16.65494,-0.86838 -19.28557,0.13627 -3.32894,1.27133 -4.21287,4.07153 -4.04226,12.80546 0.14279,7.30925 0.82135,9.25966 3.72175,10.69747 1.28229,0.63567 2.27437,0.81777 5.43953,0.99845 4.63966,0.26484 12.33124,0.0495 14.11121,-0.39518 z m -35.89299,0.0593 h 1.65467 l 3.02175,-6.64 c 1.66196,-3.652 4.05368,-8.87586 5.31493,-11.60858 3.14627,-6.81696 3.06095,-6.27979 1.03112,-6.49161 -0.92921,-0.097 -2.38877,-0.0781 -3.24346,0.0419 l -1.55399,0.21825 -1.92422,4.32 c -1.05832,2.376 -2.88293,6.48 -4.05468,9.12 -1.19634,2.69541 -2.31614,4.8 -2.55394,4.8 -0.24627,0 -2.12556,-3.8165 -4.49078,-9.12 l -4.0673,-9.12 -1.42055,-0.21955 c -1.51137,-0.23359 -5.11234,0.008 -5.08314,0.34089 0.01,0.10926 2.49428,5.59866 5.52155,12.19866 l 5.50412,12 1.91846,0.18416 c 1.05515,0.10129 2.11023,0.13729 2.34462,0.08 0.2344,-0.0573 1.17077,-0.10416 2.08084,-0.10416 z m 100.21299,10.22256 c -31.9778,-0.17062 -35.43434,-0.23935 -37.76,-0.75081 -13.37334,-2.94108 -20.11708,-12.84097 -17.47323,-25.65093 0.84845,-4.1109 2.53031,-7.34965 5.40865,-10.41543 5.16442,-5.50072 11.86755,-8.110578 20.70458,-8.061327 11.65317,0.06495 19.90506,5.985547 21.40581,15.358337 1.22453,7.64769 -2.96328,15.16685 -10.23992,18.38566 -4.32581,1.91351 -10.45972,1.53689 -11.16509,-0.68553 -0.19061,-0.60058 -0.24076,-0.60828 -0.73593,-0.11311 -0.75324,0.75324 -2.83039,1.6113 -4.72117,1.95028 -3.09733,0.5553 -7.31638,-0.8638 -9.19074,-3.09135 -3.98059,-4.73066 -2.90501,-13.00969 2.38491,-18.35743 4.16563,-4.21115 10.72693,-5.32568 14.55394,-2.47219 l 1.21368,0.90494 0.37332,-0.88786 c 0.32145,-0.76452 0.5951,-0.90917 1.96983,-1.04126 2.26388,-0.21753 5.12476,0.0703 5.30252,0.53356 0.0828,0.21567 -0.72063,4.05057 -1.7853,8.52201 -1.06467,4.47143 -2.00266,8.66988 -2.08442,9.32988 -0.14194,1.14575 -0.10657,1.2 0.7823,1.2 2.12277,0 5.5361,-3.12634 7.17367,-6.57051 2.82276,-5.93691 0.34522,-12.87678 -5.68858,-15.93434 -3.16679,-1.60473 -5.03532,-1.96951 -10.02883,-1.95782 -5.25182,0.0123 -8.18212,0.63522 -11.66871,2.48056 -5.87092,3.10728 -9.43158,9.93835 -9.03951,17.34211 0.39083,7.38038 4.57302,11.91976 13.3435,14.48313 1.58726,0.46391 9.6473,0.55002 80.15172,0.85632 l 78.387,0.34055 0.20385,0.99729 c 0.11211,0.5485 0.13971,1.43424 0.0613,1.96831 l -0.14252,0.97104 -4.52833,0.18316 c -6.9704,0.28195 -77.85704,0.39252 -117.16833,0.18276 z m -33.03125,-15.0418 c 2.68919,-0.74679 5.00667,-4.1812 5.70919,-8.46076 0.81182,-4.94536 -1.70132,-7.9831 -5.71117,-6.90336 -1.40311,0.37782 -3.5859,2.27598 -4.37743,3.80662 -1.04614,2.02301 -1.69344,5.31389 -1.45049,7.37432 0.2725,2.31112 0.92292,3.44549 2.3253,4.0555 1.238,0.5385 1.93394,0.56386 3.5046,0.12768 z m 30.48274,3.72115 c -2.78208,-0.76669 -4.32557,-3.14159 -4.3297,-6.66191 l -0.002,-1.52 h 3.95371 3.95371 l 0.2971,1.03594 c 0.47918,1.67079 1.18963,1.83463 7.95548,1.83463 7.15316,0 7.68,-0.14239 7.68,-2.07571 0,-1.03773 -0.14437,-1.33363 -0.8,-1.63969 -0.48977,-0.22864 -4.16995,-0.48932 -9.49029,-0.67223 -8.48886,-0.29184 -8.73102,-0.31869 -10.44706,-1.15827 -2.46546,-1.20623 -2.92189,-2.23795 -2.92189,-6.60467 0,-3.79413 0.4901,-5.28267 2.12187,-6.44459 1.97752,-1.40812 3.52321,-1.64579 11.68758,-1.79713 14.12603,-0.26183 16.80489,0.71639 17.27365,6.30772 l 0.18896,2.254 h -4.04641 c -3.69267,0 -4.04641,-0.0507 -4.04641,-0.57966 0,-0.31881 -0.29361,-0.89481 -0.65247,-1.28 -0.62925,-0.67543 -0.8768,-0.69998 -6.96,-0.69016 -7.07889,0.0114 -7.42753,0.10531 -7.42753,2.00028 0,1.00721 0.12107,1.17708 1.04,1.45925 0.572,0.17563 4.424,0.38909 8.56,0.47435 7.94713,0.16381 10.21891,0.4698 11.87888,1.59995 1.97303,1.3433 2.32647,2.15651 2.46793,5.67843 0.15489,3.85626 -0.27056,5.63618 -1.65976,6.94381 -1.83413,1.72644 -2.33942,1.79473 -13.96705,1.88771 -8.29753,0.0663 -11.07897,-0.0132 -12.30851,-0.35205 z m 39.02851,0.24631 c -2.56221,-0.62771 -3.17698,-0.88804 -4.18305,-1.77139 -2.31813,-2.03534 -2.52437,-2.82804 -2.64116,-10.15153 -0.11253,-7.05588 0.0999,-8.66884 1.40433,-10.66065 1.91203,-2.91968 5.46464,-3.58172 18.05161,-3.36399 9.46632,0.16374 10.93604,0.41796 13.02615,2.25308 2.13072,1.87076 2.45952,3.11494 2.60264,9.84809 0.18779,8.83533 -0.64027,11.30026 -4.38629,13.05683 l -1.79423,0.84134 -10.72,0.0525 c -5.896,0.0289 -11.008,-0.018 -11.36,-0.10428 z m 18.16219,-6.85099 c 1.3644,-0.62166 1.65125,-1.50218 1.7648,-5.41723 0.11853,-4.08679 -0.30721,-5.54145 -1.84699,-6.31083 -1.09272,-0.546 -13.69728,-0.56983 -14.88615,-0.0281 -1.31359,0.59851 -1.75385,2.12321 -1.75385,6.07394 0,3.80025 0.41175,5.18377 1.69676,5.70126 1.02919,0.41447 14.11037,0.39793 15.02543,-0.019 z m 14.63781,-5.91473 v -12.94952 l 13.36,0.0835 13.36,0.0835 0.0916,3.12 0.0916,3.12 h -9.45158 -9.45159 v 2.24 2.24 h 8.96 8.96 v 3.04 3.04 h -8.95097 -8.95097 l -0.089,4.4 -0.089,4.4 -3.92,0.066 -3.92,0.066 z m 40.32,3.3775 v -9.6 h -5.38667 c -2.96266,0 -5.44666,-0.0594 -5.52,-0.13196 -0.0733,-0.0726 -0.0878,-1.58458 -0.0321,-3.36 l 0.10126,-3.22804 h 14.85874 14.85875 v 3.36 3.36 h -5.44932 -5.44931 l 0.0893,9.43668 c 0.0722,7.62601 0.008,9.46801 -0.33685,9.6 -0.2344,0.0898 -2.0704,0.16332 -4.08,0.16332 h -3.65383 z"
       id="path4796"
       inkscape:connector-curvature="0" />
    <path
       style="fill:#8c8c8c;fill-opacity:1;stroke-width:0.31999999"
       d="m 611.79247,164.60589 c -0.87333,-0.37989 -1.7052,-1.31289 -1.7052,-1.91248 0,-0.45571 1.66685,-0.11418 2.24,0.45896 0.48485,0.48485 1.06667,0.64 2.4,0.64 2.05227,0 3.04,-0.71659 3.04,-2.2055 v -0.92551 l -1.18766,0.60551 c -1.53754,0.78388 -3.0014,0.76694 -4.60929,-0.0534 -2.94029,-1.50002 -2.93606,-6.28375 0.007,-7.80561 1.28332,-0.66363 3.84145,-0.63995 4.81879,0.0446 0.54691,0.38307 0.80801,0.4296 0.89787,0.16 0.0697,-0.20908 0.47471,-0.38014 0.90005,-0.38014 h 0.77333 v 4.7288 c 0,5.27805 -0.18429,5.85975 -2.11154,6.665 -1.3522,0.56499 -4.14161,0.55463 -5.46326,-0.0203 z m 5.03941,-4.9489 c 1.01759,-1.01759 1.2383,-2.52968 0.5801,-3.97428 -0.7414,-1.62721 -3.60786,-2.03628 -4.93925,-0.70488 -0.61981,0.6198 -0.78331,1.10909 -0.77528,2.32 0.0146,2.19908 1.03227,3.2656 3.13443,3.28481 0.75828,0.007 1.33377,-0.25942 2,-0.92565 z m -108.98461,1.61355 c -1.5225,-0.69914 -2.20477,-1.41277 -2.8678,-2.9996 -0.9409,-2.2519 -0.31913,-5.57591 1.31432,-7.02636 2.6454,-2.34905 8.3934,-1.90805 10.02567,0.76919 0.84491,1.38581 0.81927,1.5386 -0.25812,1.5386 -0.63367,0 -1.03191,-0.23541 -1.32514,-0.78332 -0.60233,-1.12545 -2.68696,-1.87963 -4.4604,-1.61369 -2.75515,0.41316 -4.32167,3.0458 -3.5399,5.94906 0.45153,1.67685 1.48093,2.70738 3.15459,3.15805 2.34405,0.63119 4.3518,-0.27284 5.12551,-2.30785 0.25825,-0.67924 0.52115,-0.86102 1.16789,-0.80749 0.74724,0.0618 0.81453,0.1695 0.64276,1.02836 -0.25814,1.29066 -1.86386,2.88502 -3.35578,3.33201 -1.7828,0.53413 -4.16278,0.43385 -5.6236,-0.23696 z m 24.37882,0.13821 c -1.5946,-0.5687 -2.41665,-1.3277 -3.13699,-2.89638 -1.0891,-2.37174 -0.61931,-5.53669 1.0546,-7.10472 2.54157,-2.38083 8.10801,-2.24035 10.40225,0.26251 0.9708,1.05907 1.38132,2.29341 1.38132,4.15332 0,3.86966 -2.50534,6.06658 -6.88,6.03306 -0.88,-0.007 -2.14953,-0.20825 -2.82118,-0.44779 z m 4.64061,-1.14752 c 3.01824,-0.83829 4.13276,-5.1003 1.99736,-7.63808 -2.29424,-2.72655 -7.24644,-1.73729 -8.15278,1.62862 -0.70647,2.62361 0.38899,5.09554 2.61503,5.90085 1.37002,0.49563 2.06964,0.5171 3.54039,0.10861 z m 9.88332,1.05065 c -2.13115,-1.0867 -2.40962,-1.83662 -2.53344,-6.82235 l -0.11068,-4.45716 h 0.95929 0.95929 l 0.11139,4.34799 c 0.11038,4.30815 0.11962,4.35505 1.00924,5.12 0.99954,0.85945 3.38644,1.06617 4.81182,0.41673 1.22561,-0.55843 1.49034,-1.60642 1.49034,-5.89977 v -3.98495 h 0.96 0.96 v 4.35063 c 0,5.0261 -0.28075,5.82346 -2.41404,6.85617 -1.68056,0.81354 -4.68136,0.84872 -6.20321,0.0727 z m 54.37226,-0.0267 c -2.81186,-1.48066 -2.96302,-6.07317 -0.25427,-7.72466 1.2618,-0.7693 3.62037,-0.85688 5.20828,-0.19341 1.22538,0.51199 2.09098,1.90679 2.09098,3.36932 v 0.97589 h -3.68 c -3.33898,0 -3.68,0.0537 -3.68,0.57966 0,0.71744 1.02927,1.85763 1.937,2.14573 1.13406,0.35994 2.82522,-0.13025 3.38223,-0.98034 0.48782,-0.74453 1.37248,-1.02667 1.819,-0.58015 0.42663,0.42663 -0.91475,2.03624 -2.08818,2.50575 -1.63339,0.65356 -3.37657,0.61755 -4.73504,-0.0978 z m 5.21515,-5.50265 c -0.43977,-1.68166 -3.37068,-2.17878 -4.7447,-0.80475 -1.27505,1.27504 -1.02026,1.45454 2.06458,1.45454 2.70681,0 2.8415,-0.0327 2.68012,-0.64979 z m 22.94984,5.52931 c -0.97866,-0.4889 -1.1323,-0.72876 -1.21748,-1.90068 -0.0846,-1.16358 0.0191,-1.41757 0.78317,-1.91819 0.48436,-0.31736 1.96727,-0.72711 3.29535,-0.91053 1.88969,-0.261 2.4383,-0.45607 2.52325,-0.89718 0.18989,-0.98598 -0.56263,-1.49293 -2.21609,-1.49293 -1.30389,0 -1.63765,0.12852 -2.07763,0.8 -0.3166,0.48319 -0.82641,0.8 -1.28737,0.8 -0.97742,0 -0.9817,-0.67029 -0.0115,-1.79824 0.62989,-0.7323 1.06884,-0.89687 2.70834,-1.01546 2.33648,-0.16901 3.37975,0.0535 4.22807,0.90184 0.53587,0.53587 0.63186,1.07094 0.63186,3.5219 0,2.27373 0.10237,2.92933 0.48,3.07424 0.62022,0.238 0.61855,0.95408 -0.003,1.19251 -0.58764,0.2255 -2.07722,-0.30029 -2.07722,-0.73322 0,-0.17175 -0.612,-0.0345 -1.36,0.30505 -1.69652,0.77008 -2.95963,0.79043 -4.4,0.0709 z m 4.81299,-1.53126 c 0.35039,-0.3171 0.62701,-0.9803 0.62701,-1.50327 0,-0.84837 -0.0822,-0.9201 -0.88,-0.76753 -0.484,0.0926 -1.49388,0.26098 -2.24417,0.37425 -1.7204,0.25975 -2.33854,1.15922 -1.46215,2.12761 0.46718,0.51624 0.86077,0.61496 1.95849,0.49123 0.75559,-0.0852 1.65596,-0.4102 2.00082,-0.72229 z m 12.46202,1.50461 c -2.81186,-1.48066 -2.96302,-6.07317 -0.25427,-7.72466 1.2618,-0.76929 3.62037,-0.85688 5.20828,-0.19341 1.22538,0.512 2.09098,1.90679 2.09098,3.36932 v 0.97589 h -3.68 c -3.46667,0 -3.68,0.0371 -3.68,0.64 0,0.8074 1.01748,1.84192 2.07186,2.10655 1.12732,0.28294 2.23255,-0.0544 3.24128,-0.98923 1.47743,-1.36924 2.53512,-0.86435 1.34877,0.64385 -1.36212,1.73166 -4.2656,2.26766 -6.3469,1.17169 z m 5.12499,-5.47471 c 0,-1.62729 -3.2742,-2.21304 -4.65454,-0.83269 -1.26616,1.26615 -1.0156,1.45454 1.93454,1.45454 2.48021,0 2.72,-0.0548 2.72,-0.62185 z m 5.92,5.63181 c -1.66673,-0.76828 -2.19948,-1.64996 -2.34112,-3.87443 -0.12376,-1.94356 -0.0831,-2.07847 0.97326,-3.23119 0.96367,-1.05154 1.32398,-1.22131 2.86279,-1.34892 1.24084,-0.1029 2.05916,0.009 2.77273,0.37751 l 1.01234,0.52351 v -1.92822 -1.92822 h 0.96 0.96 v 5.76 5.76 h -0.93333 c -0.51334,0 -0.99392,-0.18 -1.06797,-0.4 -0.10687,-0.31754 -0.23732,-0.31526 -0.63278,0.0111 -0.76071,0.62772 -3.45248,0.79213 -4.56592,0.27889 z m 4.00099,-1.33047 c 1.73003,-0.89463 1.96526,-4.05324 0.3939,-5.28926 -0.9584,-0.75388 -2.8504,-0.82781 -3.8192,-0.14924 -0.37769,0.26455 -0.8529,0.98455 -1.05602,1.6 -0.96637,2.92816 1.74711,5.25241 4.48132,3.8385 z m 13.24141,1.14811 c -1.47589,-0.67023 -2.3624,-1.728 -2.3624,-2.8188 0,-1.06637 1.50377,-1.02357 1.91364,0.0545 0.46352,1.21917 1.80162,1.91387 3.68636,1.91387 2.145,0 3.44026,-0.7806 3.29932,-1.98837 -0.11131,-0.95391 -1.27287,-1.51608 -5.10803,-2.4722 -1.17079,-0.29189 -2.43079,-0.81213 -2.8,-1.1561 -0.72786,-0.6781 -0.88658,-2.16026 -0.34059,-3.18046 0.88134,-1.64681 5.06118,-2.46352 7.46585,-1.45879 1.19612,0.49977 2.51395,2.00079 2.37562,2.70585 -0.0507,0.25839 -0.41944,0.5196 -0.81944,0.58047 -0.52984,0.0806 -0.82908,-0.11278 -1.1023,-0.71243 -0.20627,-0.45271 -0.77184,-1.0283 -1.25684,-1.27911 -1.94758,-1.00713 -5.07359,-0.20369 -5.07359,1.304 0,0.98441 0.96492,1.50281 4.12158,2.21429 3.79345,0.85501 4.51842,1.3985 4.51842,3.38733 0,2.82143 -4.96993,4.51704 -8.5176,2.90598 z m 12.8376,0.18065 c -1.61915,-0.75333 -2.47788,-1.94397 -2.62369,-3.63781 -0.25229,-2.93063 1.66686,-4.89044 4.78898,-4.89044 3.1925,0 5.03471,1.54376 5.03471,4.21905 0,1.84468 -0.59103,3.14559 -1.78433,3.92747 -1.13926,0.74647 -4.17223,0.96025 -5.41567,0.38173 z m 3.83465,-1.16621 c 1.08845,-0.41383 1.8586,-2.21953 1.58002,-3.70451 -0.28364,-1.51194 -1.46045,-2.37753 -3.23237,-2.37753 -1.94177,0 -2.9823,1.03075 -2.9823,2.95425 0,2.68327 2.09144,4.09472 4.63465,3.12779 z m 11.77274,1.24187 c -0.56794,-0.16411 -1.18083,-0.57533 -1.36199,-0.91382 -0.18115,-0.33849 -0.42236,-2.13523 -0.53601,-3.99276 l -0.20665,-3.37733 h 1.00863 1.00863 v 3.04 c 0,2.61334 0.0898,3.12983 0.64,3.68 0.72697,0.72697 1.38471,0.79331 2.839,0.28634 1.40192,-0.48871 1.641,-1.11014 1.641,-4.2653 v -2.74104 h 0.96 0.96 v 4.16 4.16 h -0.99424 c -0.75229,0 -0.94941,-0.1168 -0.81004,-0.48 0.23072,-0.60124 0.26649,-0.60587 -1.23572,0.16 -1.34873,0.68762 -2.28126,0.75529 -3.91261,0.28391 z m 21.51261,-0.0956 c -1.57304,-0.69915 -2.4005,-1.84335 -2.58803,-3.5787 -0.32978,-3.0517 1.54465,-4.92809 4.92392,-4.92908 3.12548,-9.6e-4 4.86411,1.54156 4.86411,4.31534 0,2.96166 -1.76108,4.59974 -4.96,4.61358 -0.704,0.003 -1.712,-0.18647 -2.24,-0.42114 z m 3.83465,-1.14624 c 1.08845,-0.41383 1.8586,-2.21953 1.58002,-3.70451 -0.28369,-1.51221 -1.46041,-2.37753 -3.23311,-2.37753 -1.88772,0 -2.98156,1.1063 -2.98156,3.01553 0,2.62266 2.11733,4.02359 4.63465,3.06651 z m 17.87055,1.13148 c -1.67855,-0.73016 -2.36931,-2.73352 -0.94252,-2.73352 0.49201,0 0.82171,0.22576 0.92903,0.63615 0.33176,1.26865 3.51995,1.64934 4.61789,0.5514 0.83737,-0.83738 0.12211,-1.43625 -2.38034,-1.99299 -2.44089,-0.54305 -3.92926,-1.49842 -3.92926,-2.52217 0,-0.26218 0.32875,-0.8589 0.73056,-1.32602 1.65295,-1.92167 7.26944,-1.16942 7.26944,0.97363 0,0.68977 -1.16752,0.59248 -1.92,-0.16 -1.2285,-1.22849 -4.58997,-0.62206 -4.06954,0.73418 0.0891,0.23228 1.30944,0.66889 2.71178,0.97023 1.47834,0.31768 2.76991,0.79122 3.07374,1.12695 0.6574,0.72641 0.67209,1.93484 0.0346,2.845 -0.88924,1.26957 -4.16596,1.74949 -6.12537,0.89716 z m -227.3052,-5.61352 v -5.76 h 0.96 0.96 v 4.96 4.96 h 3.4827 c 3.46076,0 3.48365,0.005 3.63562,0.8 l 0.15293,0.8 h -4.59563 -4.59562 z m 39.04,0 v -5.76 l 3.76,0.007 c 4.37352,0.008 6.04752,0.54635 7.10421,2.28394 1.29113,2.12309 1.13365,5.24841 -0.36014,7.14746 -1.23774,1.57354 -2.87896,2.06669 -6.90407,2.07455 l -3.6,0.007 z m 7.67847,3.84064 c 1.21611,-0.50373 1.92153,-1.90827 1.92153,-3.8259 0,-3.28896 -1.4566,-4.49474 -5.42972,-4.49474 h -2.25028 v 4.26667 c 0,2.34667 0.0906,4.35731 0.20144,4.46811 0.30351,0.3035 4.59696,-0.0164 5.55703,-0.41414 z m 11.84153,-3.84064 v -5.76 h 0.96 0.96 v 5.76 5.76 h -0.96 -0.96 z m 4.8,1.6 v -4.16 h 0.77333 c 0.42534,0 0.82359,0.15075 0.88501,0.33501 0.0714,0.21422 0.56807,0.14431 1.37753,-0.1939 1.55681,-0.65048 4.06132,-0.47814 4.96737,0.34183 0.5644,0.51077 0.63676,0.98881 0.63676,4.20666 v 3.6304 h -0.8 c -0.79585,0 -0.8,-0.0154 -0.8,-2.96879 0,-3.62581 -0.38608,-4.39121 -2.21499,-4.39121 -0.74838,0 -1.54409,0.25595 -2.06185,0.66323 -0.80435,0.6327 -0.84316,0.80207 -0.84316,3.68 v 3.01677 h -0.96 -0.96 z m 11.85126,3.54104 c -0.18219,-0.34043 -0.33126,-1.99643 -0.33126,-3.68 0,-3.05177 -0.002,-3.06104 -0.8,-3.06104 -0.49778,0 -0.8,-0.18133 -0.8,-0.48 0,-0.29866 0.30222,-0.48 0.8,-0.48 0.72,0 0.8,-0.128 0.8,-1.28 0,-1.20889 0.0533,-1.28 0.96,-1.28 0.90667,0 0.96,0.0711 0.96,1.28 0,1.20889 0.0533,1.28 0.96,1.28 0.64,0 0.96,0.16 0.96,0.48 0,0.32 -0.32,0.48 -0.96,0.48 h -0.96 v 3.04 3.04 h 0.96 c 0.74667,0 0.96,0.14222 0.96,0.64 0,0.55406 -0.21333,0.64 -1.58874,0.64 -1.24324,0 -1.66078,-0.13461 -1.92,-0.61896 z m 27.50874,-3.54104 v -4.16 h 0.96 c 0.65969,0 0.96,0.15742 0.96,0.50323 0,0.41715 0.14422,0.38978 0.84316,-0.16 1.2137,-0.9547 2.35684,-0.88836 2.35684,0.13677 0,0.67556 -0.14933,0.8 -0.96,0.8 -1.75931,0 -2.24,0.89272 -2.24,4.16 v 2.88 h -0.96 -0.96 z m 17.984,3.776 c -0.24896,-0.24895 -0.384,-1.54311 -0.384,-3.68 v -3.296 h -0.8 c -0.49778,0 -0.8,-0.18133 -0.8,-0.48 0,-0.29866 0.30222,-0.48 0.8,-0.48 0.72218,0 0.8,-0.12658 0.8,-1.30125 0,-1.23077 0.0477,-1.29577 0.88,-1.2 0.76099,0.0876 0.89327,0.2609 0.97815,1.28175 0.0835,1.00383 0.22344,1.19539 0.93533,1.28 1.23255,0.1465 1.32731,0.8995 0.11319,0.8995 h -0.98667 v 3.01875 3.01874 l 0.85136,0.10126 c 0.51778,0.0616 0.88283,0.32067 0.93169,0.66125 0.0668,0.46546 -0.17421,0.56 -1.42736,0.56 -0.82923,0 -1.68049,-0.1728 -1.89169,-0.384 z m 57.216,-5.376 v -5.76 h 0.8 0.8 v 5.76 5.76 h -0.8 -0.8 z m 16.384,5.376 c -0.24896,-0.24895 -0.384,-1.54311 -0.384,-3.68 v -3.296 h -0.8 c -1.00909,0 -1.07795,-0.87601 -0.08,-1.01774 0.57835,-0.0821 0.73954,-0.33835 0.81932,-1.30226 0.0846,-1.0226 0.21187,-1.2 0.86068,-1.2 0.64881,0 0.77605,0.1774 0.86068,1.2 0.0862,1.04182 0.21532,1.21335 0.97932,1.30126 1.23866,0.14252 1.15952,1.01874 -0.092,1.01874 h -0.97201 l 0.092,2.96 0.092,2.96 0.88,0.10126 c 0.62168,0.0715 0.88,0.28288 0.88,0.72 0,0.51573 -0.22909,0.61874 -1.376,0.61874 -0.7568,0 -1.5488,-0.1728 -1.76,-0.384 z m 4.736,-3.776 v -4.16 h 0.96 0.96 v 4.16 4.16 h -0.96 -0.96 z m 16,0 v -4.16 h 0.8 c 0.49426,0 0.8,0.18165 0.8,0.4753 0,0.38782 0.19141,0.35859 1.04,-0.15881 1.67844,-1.02336 4.57655,-0.72328 5.56374,0.57609 0.27976,0.36823 0.41924,1.67347 0.42608,3.98742 l 0.0102,3.44 h -0.96 -0.96 v -3.34874 c 0,-2.9833 -0.0675,-3.38489 -0.61896,-3.68 -1.44664,-0.77422 -3.9383,6.4e-4 -4.296,1.33593 -0.10796,0.40305 -0.19827,1.84881 -0.20067,3.21281 -0.004,2.43084 -0.0202,2.48 -0.80437,2.48 h -0.8 z m -16,-6.56 c 0,-0.67555 0.14933,-0.8 0.96,-0.8 0.81067,0 0.96,0.12445 0.96,0.8 0,0.67556 -0.14933,0.8 -0.96,0.8 -0.81067,0 -0.96,-0.12444 -0.96,-0.8 z m -192,-7.85592 c -7.832,-0.11902 -16.1297,-0.23613 -18.43933,-0.26024 l -4.19934,-0.0438 -0.2304,-7.92 c -0.30186,-10.3765 -0.30506,-17.83622 -0.0122,-28.42797 l 0.23968,-8.667981 19.12237,-0.211018 c 19.353,-0.213562 58.8802,0.05461 58.87803,0.399457 -6.4e-4,0.103133 -0.96691,0.686914 -2.14724,1.297291 -7.86949,4.069521 -12.83304,12.321701 -12.61322,20.970221 0.14532,5.71781 1.48182,9.50621 4.8481,13.74232 2.92201,3.67705 6.80236,6.57298 10.34788,7.7227 0.90511,0.29351 1.76542,0.64291 1.91179,0.77644 0.2532,0.23101 -12.36494,0.50598 -33.70613,0.73451 -5.368,0.0575 -16.168,0.007 -24,-0.11189 z m 35.39834,-11.2184 c 2.10618,-1.08388 3.0543,-2.92125 3.11647,-6.03939 0.034,-1.70248 -0.0742,-2.34231 -0.43481,-2.57145 -0.56265,-0.35756 -4.79716,-0.4133 -5.31363,-0.0699 -0.19449,0.12931 -0.53261,0.78403 -0.75137,1.45495 -0.26762,0.82079 -0.67535,1.32815 -1.24637,1.5509 -1.24554,0.4859 -10.1866,0.47438 -11.64243,-0.015 -1.01163,-0.34006 -1.24991,-0.60535 -1.56154,-1.73853 -0.4834,-1.75775 -0.48421,-7.12297 -10e-4,-8.58618 0.20941,-0.63452 0.64653,-1.3942 0.97139,-1.68819 1.15727,-1.04731 9.11429,-1.35919 12.04001,-0.47191 0.7094,0.21514 1.05784,0.57783 1.28,1.33233 0.2701,0.91734 0.48029,1.06834 1.82525,1.31134 0.86301,0.15592 2.17699,0.15164 3.04,-0.01 l 1.52,-0.28452 -0.0581,-1.58295 c -0.0957,-2.60885 -0.40277,-3.63313 -1.44523,-4.82043 -1.59853,-1.82062 -2.44802,-2.09175 -7.6481,-2.44101 -5.19987,-0.34924 -13.11355,0.0436 -14.41796,0.71564 -1.07299,0.55284 -2.49477,1.92882 -3.00814,2.91124 -0.75703,1.4487 -1.19499,6.52038 -0.9961,11.53497 0.20137,5.07687 0.55623,6.45667 2.07056,8.05092 2.00101,2.1066 4.0428,2.44124 14.19391,2.32632 6.66561,-0.0755 6.98969,-0.10873 8.46746,-0.86922 z m -36.0716,0.39585 c 0.64198,-0.17975 1.51611,-1.85375 5.37222,-10.2881 6.26204,-13.69677 6.47264,-14.1805 6.2971,-14.46453 -0.17399,-0.28152 -5.04796,-0.33368 -6.04904,-0.0647 -0.46768,0.12564 -1.12289,1.23681 -2.30889,3.91563 -5.12583,11.57778 -6.41301,14.3002 -6.76125,14.3002 -0.21199,0 -2.18443,-4.02685 -4.38321,-8.94856 -2.19877,-4.92171 -4.17235,-9.0595 -4.38572,-9.1951 -0.47377,-0.30107 -5.30396,-0.29615 -6.03124,0.006 -0.44337,0.1843 0.0347,1.43912 3.13081,8.21751 7.65257,16.75401 7.49457,16.43555 8.22546,16.57849 1.11137,0.21734 6.0601,0.17646 6.89376,-0.057 z m 111.87326,10.1849 c -50.47681,-0.45951 -48.91492,-0.42232 -51.81324,-1.23383 -10.14642,-2.84095 -15.27578,-8.23892 -16.47427,-17.33698 -1.0264,-7.79163 2.28495,-15.99675 8.33442,-20.65172 3.80307,-2.92639 7.96731,-4.491591 14.27807,-5.366655 5.12655,-0.710858 11.19035,0.233007 15.57829,2.424845 5.57887,2.78673 8.56656,6.95821 9.50561,13.27194 0.6363,4.27821 -0.60901,8.68602 -3.56578,12.62111 -3.33094,4.43306 -10.54474,7.25285 -15.13841,5.91744 -1.18486,-0.34445 -1.99663,-0.79751 -2.32392,-1.29701 l -0.50297,-0.76764 -1.1428,0.77552 c -3.15674,2.14223 -8.00175,2.09254 -11.60293,-0.11899 -1.87287,-1.15015 -3.39005,-3.69738 -3.82366,-6.41963 -0.66223,-4.15746 1.03388,-9.27064 4.21491,-12.70653 2.14572,-2.31764 4.26078,-3.53095 7.23695,-4.1515 3.15293,-0.6574 6.51064,0.0526 8.28361,1.75166 0.75883,0.72719 0.7156,0.75423 1.16764,-0.73042 0.38263,-1.25667 6.90848,-1.13892 6.90848,0.12465 0,0.85112 -3.43543,15.4516 -3.84956,16.36051 -0.43065,0.94516 0.0767,2.5068 0.81439,2.5068 0.94992,0 3.12844,-1.34279 4.65472,-2.86907 3.10456,-3.10456 4.54425,-7.61003 3.65584,-11.44079 -0.66258,-2.85702 -1.40849,-4.14376 -3.62961,-6.26132 -3.39576,-3.23744 -7.04023,-4.48317 -13.16578,-4.50026 -6.67139,-0.0186 -11.65316,1.80405 -15.49466,5.66896 -1.25683,1.2645 -2.72441,3.145 -3.29053,4.21639 -2.57697,4.8769 -2.92667,11.48657 -0.83731,15.82609 1.83811,3.81768 6.50207,7.40929 11.48586,8.84501 2.54763,0.73391 23.86645,0.98547 87.84431,1.03653 26.50322,0.0212 53.39307,0.13377 59.75522,0.25026 l 11.56755,0.2118 0.2,1.06609 c 0.11,0.58636 0.11381,1.4095 0.008,1.82919 l -0.19153,0.76309 -31.60369,0.20071 c -17.38204,0.11039 -35.3477,0.25589 -39.9237,0.32332 -4.576,0.0674 -21.28,0.005 -37.12,-0.13957 z m -44.57854,-15.38967 c 2.41458,-1.20753 4.06633,-4.40306 4.84452,-9.37233 0.36635,-2.33935 -1.41355,-5.30991 -3.54845,-5.92219 -3.08075,-0.88355 -7.44271,2.93014 -8.20966,7.17776 -0.0953,0.528 -0.26333,1.37095 -0.37333,1.87322 -0.39027,1.78217 0.16474,4.32091 1.2032,5.50365 1.55598,1.77217 3.53767,2.01318 6.08372,0.73989 z m 29.8279,4.07297 c -2.03412,-0.4938 -3.59522,-1.58199 -4.14001,-2.88587 -0.23004,-0.55055 -0.45651,-1.93314 -0.50326,-3.07243 l -0.085,-2.07143 3.86206,-0.0895 3.86205,-0.0896 0.21117,1.12566 c 0.11615,0.61912 0.48352,1.27141 0.81637,1.44955 0.87527,0.46843 13.19673,0.42433 14.23988,-0.051 1.50753,-0.68687 1.44474,-2.90159 -0.1,-3.52699 -0.47111,-0.19073 -4.57545,-0.45308 -9.17262,-0.5863 -9.3166,-0.26999 -11.04226,-0.58155 -12.44325,-2.24653 -1.04079,-1.2369 -1.24377,-2.39834 -1.10754,-6.33708 0.0912,-2.63769 0.22897,-3.36251 0.78021,-4.10571 0.97924,-1.32022 2.49783,-2.24816 4.31803,-2.63852 2.11227,-0.453 18.63283,-0.453 20.7451,0 3.26539,0.7003 4.73763,2.474 4.89789,5.90081 l 0.0896,1.91518 -3.92,0.0898 -3.92,0.0898 v -0.78699 c 0,-1.68741 -0.44303,-1.79271 -7.54286,-1.79271 -6.11047,0 -6.57891,0.0418 -7.17714,0.64 -0.8963,0.8963 -0.82009,2.10725 0.17358,2.75833 0.68224,0.44702 2.21908,0.57283 9.52,0.77932 5.71687,0.16168 9.13978,0.39073 9.96849,0.66704 2.9429,0.98121 4.22007,3.64387 3.95384,8.24293 -0.25888,4.47193 -1.7538,6.09679 -6.20061,6.73951 -3.20447,0.46317 -19.09822,0.37484 -21.12594,-0.1174 z m 38.3128,0.10544 c -2.05537,-0.40394 -4.11267,-1.50054 -5.00162,-2.66602 -1.43945,-1.88721 -1.83122,-4.41475 -1.70984,-11.03128 0.10283,-5.60535 0.15663,-6.05157 0.9093,-7.54152 1.04227,-2.06324 2.56849,-3.23226 5.04504,-3.86426 1.6819,-0.42921 3.69702,-0.49559 12.5037,-0.41188 l 10.49866,0.0998 1.88564,0.9649 c 1.44169,0.73773 2.11417,1.33427 2.8563,2.53375 l 0.97066,1.56885 0.10247,6.99602 c 0.11582,7.90703 -0.13396,9.32202 -1.94965,11.04484 -2.50137,2.37342 -4.20107,2.65982 -15.52857,2.61658 -5.05134,-0.0193 -9.81328,-0.15868 -10.58209,-0.30977 z m 18.62634,-6.7919 c 1.26234,-0.82725 1.4915,-1.7276 1.4915,-5.85999 0,-6.21453 -0.45826,-6.5328 -9.36648,-6.50522 -8.45157,0.0262 -9.13067,0.39932 -9.42899,5.18107 -0.30937,4.95884 0.45004,7.02232 2.80053,7.60964 0.61322,0.15322 3.92934,0.24993 7.36915,0.21491 5.41772,-0.0552 6.37192,-0.14082 7.13429,-0.64041 z m 14.36783,-5.90327 c 0.046,-6.996 0.19167,-12.684 0.32367,-12.64 0.132,0.044 6.072,0.08 13.2,0.08 h 12.96 v 3.04 3.04 h -9.28 -9.28 v 2.24 2.24 h 8.8 8.8 v 3.04 3.04 h -8.8 -8.8 v 4.32 4.32 h -4.00367 -4.00367 z m 40.24367,3.12 v -9.6 h -5.45159 -5.45158 l 0.0916,-3.06259 0.0916,-3.0626 14.72,0.0127 14.72,0.0127 0.0916,3.04988 0.0916,3.04988 h -5.45158 -5.45159 v 9.6 9.6 h -4 -4 z"
       id="path4794"
       inkscape:connector-curvature="0" />
    <path
       style="fill:#333333;fill-opacity:1;stroke-width:0.31999999"
       d="m 612.80727,164.79252 c -1.56277,-0.40536 -2.4,-0.98145 -2.4,-1.65141 0,-0.75597 1.20385,-0.87953 1.48295,-0.15221 0.24794,0.64613 2.34439,1.17126 3.67372,0.92021 1.52306,-0.28763 2.20333,-0.98372 2.20333,-2.25455 v -1.07862 l -1.04,0.54357 c -1.30376,0.68143 -3.82451,0.67387 -4.87527,-0.0146 -2.83496,-1.85753 -2.66675,-6.24274 0.29099,-7.58609 1.67092,-0.75889 2.94938,-0.75916 4.43662,-9.6e-4 0.93821,0.47833 1.18766,0.51194 1.18766,0.16 0,-0.26187 0.32975,-0.4455 0.8,-0.4455 h 0.8 v 4.45917 c 0,4.80524 -0.20555,5.80141 -1.35207,6.55264 -0.88767,0.58162 -3.86932,0.89556 -5.20793,0.54834 z m 4.17454,-4.9856 c 0.62823,-0.62823 0.78546,-1.11156 0.78546,-2.41455 0,-2.24621 -0.93283,-3.2 -3.12967,-3.2 -1.22365,0 -1.71108,0.16213 -2.26722,0.75411 -0.96406,1.0262 -1.2027,2.73171 -0.55695,3.98046 0.66359,1.28323 1.31863,1.64374 3.00838,1.6557 1.04098,0.007 1.56516,-0.18088 2.16,-0.77572 z m -107.87673,1.78249 c -2.78939,-0.71726 -4.36764,-2.77337 -4.42321,-5.76248 -0.0453,-2.43439 0.75602,-3.97379 2.64704,-5.08547 1.2594,-0.74037 1.83467,-0.8679 3.88412,-0.86107 1.94705,0.006 2.63423,0.14922 3.60404,0.7486 1.85516,1.14655 2.43795,2.60338 1.04146,2.60338 -0.47191,0 -0.93215,-0.26796 -1.14576,-0.66709 -0.80024,-1.49526 -4.09585,-2.03393 -6.04577,-0.98818 -2.96131,1.58817 -2.99127,6.32561 -0.0524,8.28889 2.10421,1.40571 5.31063,0.59754 6.37014,-1.60556 0.29,-0.60302 0.66297,-0.86806 1.22157,-0.86806 0.68216,0 0.77256,0.10919 0.59616,0.72 -0.3536,1.22437 -1.26607,2.2949 -2.46445,2.89136 -1.34057,0.66722 -3.83158,0.94602 -5.23293,0.58568 z m 23.97681,-0.004 c -1.54237,-0.3965 -3.08737,-1.47702 -3.79108,-2.65135 -0.92284,-1.53998 -0.8915,-4.82343 0.0607,-6.35429 1.84233,-2.96207 7.29052,-3.75624 10.43045,-1.52042 3.06627,2.18338 2.70458,7.95926 -0.61199,9.77306 -1.45203,0.79411 -4.47413,1.1679 -6.08803,0.753 z m 4.52865,-1.45419 c 1.55397,-0.64929 2.39434,-2.17228 2.39434,-4.33926 0,-3.10694 -1.71857,-4.8 -4.87232,-4.8 -1.77462,0 -3.39833,0.88394 -4.16009,2.26473 -0.79292,1.43727 -0.65331,4.42826 0.25435,5.4491 1.63104,1.8344 4.09053,2.38358 6.38372,1.42543 z m 9.62583,1.28637 c -2.45805,-0.91415 -2.57624,-1.20362 -2.69216,-6.59362 l -0.10305,-4.79201 h 0.82305 0.82306 v 4.01589 c 0,4.83034 0.31603,5.70604 2.24688,6.22596 1.64791,0.44374 3.4381,0.10226 4.37486,-0.8345 0.67409,-0.67408 0.74155,-1.03854 0.77615,-4.1928 0.0208,-1.9 0.0159,-3.57746 -0.011,-3.72769 -0.13805,-0.77043 0.39907,-1.48686 1.11471,-1.48686 h 0.77844 l -10e-4,4.24 c -10e-4,4.73791 -0.3569,5.82683 -2.21663,6.78853 -1.41979,0.73421 -4.41304,0.91497 -5.91308,0.3571 z m 54.90999,0.13776 c -2.26945,-0.53716 -3.61483,-2.98632 -2.94623,-5.36339 0.4511,-1.60381 0.96837,-2.21946 2.34966,-2.7966 1.4348,-0.5995 2.80656,-0.61523 4.14776,-0.0476 1.45085,0.61408 2.17609,1.54673 2.37897,3.05932 l 0.17502,1.30484 h -3.72214 c -3.53637,0 -3.72213,0.0327 -3.72213,0.65455 0,0.36 0.35346,1.008 0.78546,1.44 1.08371,1.08372 2.97863,1.07727 4.27618,-0.0145 1.03409,-0.87013 1.97836,-1.04949 1.97836,-0.37578 0,0.68884 -1.34428,1.72834 -2.72,2.10332 -1.42583,0.38864 -1.48724,0.38938 -2.98091,0.0358 z m 4.41073,-5.36339 c -0.0157,-0.86596 -0.77809,-1.67542 -1.8739,-1.9897 -1.81034,-0.51919 -3.83912,0.52502 -3.86574,1.9897 -0.009,0.49261 0.33642,0.56 2.86982,0.56 2.5334,0 2.87877,-0.0674 2.86982,-0.56 z m 23.69018,5.41908 c -1.98617,-0.28596 -2.9179,-2.60259 -1.55676,-3.87068 0.72589,-0.67627 1.28694,-0.83074 4.17008,-1.14815 1.92039,-0.21142 2.43772,-0.69326 1.87441,-1.74581 -0.58157,-1.08666 -4.26899,-0.95682 -4.69966,0.16549 -0.23133,0.60286 -1.38807,0.59664 -1.38807,-0.007 0,-1.37759 2.44116,-2.32733 5.05959,-1.96844 2.36252,0.32382 2.76043,0.94648 2.8913,4.52435 0.0855,2.3361 0.21393,3.03162 0.56,3.03162 0.24701,0 0.44911,0.216 0.44911,0.48 0,0.64721 -1.54403,0.62985 -2.26818,-0.0255 -0.4657,-0.42145 -0.68273,-0.43874 -1.3052,-0.10398 -0.93346,0.50202 -2.73461,0.82002 -3.78662,0.66856 z m 3.49522,-1.48626 c 0.8286,-0.42849 1.28929,-1.26605 1.30041,-2.36424 0.006,-0.56345 -3.66422,-0.19838 -4.71563,0.4691 -0.78824,0.5004 -0.93715,1.37717 -0.336,1.97832 0.52921,0.52921 2.65828,0.482 3.75122,-0.0832 z m 13.78938,1.41859 c -2.44525,-0.57309 -3.72182,-3.34476 -2.73302,-5.9339 0.89015,-2.33083 3.75784,-3.35403 6.3387,-2.26167 1.45085,0.61408 2.17609,1.54673 2.37897,3.05932 l 0.17502,1.30484 h -3.72214 -3.72213 v 0.77678 c 0,1.94708 3.44527,2.84704 4.98909,1.30322 0.44,-0.44 1.08145,-0.8 1.42545,-0.8 0.71577,0 0.75315,0.12349 0.29598,0.97773 -0.67635,1.26375 -3.39008,2.05082 -5.42592,1.57368 z m 4.4754,-5.22825 c 0,-0.75427 -1.22922,-2.03884 -2.11256,-2.2077 -1.86175,-0.3559 -3.64744,0.69351 -3.64744,2.14351 0,0.4176 0.47959,0.50103 2.88,0.50103 2.22022,0 2.88,-0.10007 2.88,-0.43684 z m 6.56,5.24699 c -1.55676,-0.35516 -2.28428,-0.87996 -2.83829,-2.04744 -1.99517,-4.20451 2.11713,-8.12498 6.29063,-5.9972 l 1.18766,0.6055 v -2.0455 c 0,-1.83217 0.0667,-2.04551 0.64,-2.04551 0.6163,0 0.64,0.21334 0.64,5.76 0,5.54667 -0.0237,5.76 -0.64,5.76 -0.35556,0 -0.64,-0.21333 -0.64,-0.48 0,-0.5925 -0.15262,-0.59816 -1.05126,-0.039 -0.93749,0.58334 -2.40359,0.79951 -3.58874,0.52914 z m 3.51296,-1.69015 c 1.00958,-0.87721 1.37159,-2.71704 0.80416,-4.08694 -0.50167,-1.21115 -1.24855,-1.62836 -2.95724,-1.65194 -1.79573,-0.0248 -3.11988,1.37095 -3.11988,3.28855 0,2.71357 3.23816,4.21834 5.27296,2.45033 z m 13.96573,1.67921 c -1.6335,-0.38563 -2.60442,-1.00208 -3.10599,-1.972 -0.65992,-1.27615 -0.57219,-1.86721 0.27714,-1.86721 0.51803,0 0.83563,0.28025 1.09432,0.9656 0.9882,2.61803 7.13584,2.43899 7.13584,-0.20782 0,-0.99164 -0.98454,-1.58425 -3.66463,-2.20581 -1.21922,-0.28275 -2.68186,-0.70843 -3.25031,-0.94594 -2.85651,-1.19353 -1.93517,-4.46795 1.48826,-5.28922 2.9709,-0.71271 5.97715,0.28801 6.64823,2.21306 0.335,0.96099 0.31739,0.99013 -0.5982,0.99013 -0.60388,0 -0.94335,-0.16437 -0.94335,-0.45677 0,-0.94674 -1.6032,-1.78323 -3.4177,-1.78323 -1.42849,0 -1.87392,0.14253 -2.5461,0.81472 -0.74672,0.74671 -0.77568,0.87358 -0.34706,1.52 0.52196,0.78716 1.57823,1.2114 4.87086,1.9563 2.80584,0.63477 3.84222,1.61338 3.56359,3.36494 -0.23657,1.48718 -1.35953,2.43577 -3.40204,2.87381 -1.82716,0.39186 -2.25374,0.39516 -3.80286,0.0294 z m 12.76131,-0.009 c -2.51214,-0.43074 -3.5496,-1.64115 -3.56915,-4.1641 -0.023,-2.96546 1.96893,-4.62355 5.23538,-4.35806 3.14307,0.25547 4.65948,1.97016 4.32971,4.89585 -0.3036,2.69355 -2.76257,4.18071 -5.99594,3.62631 z m 3.54461,-1.88592 c 1.0748,-1.0748 1.2465,-2.65477 0.45488,-4.18561 -0.78513,-1.51827 -3.64634,-1.9211 -5.03769,-0.70925 -1.35792,1.18273 -1.26214,4.34341 0.16184,5.34081 0.38432,0.26919 1.3258,0.48943 2.09218,0.48943 1.11342,0 1.58137,-0.18795 2.32879,-0.93538 z m 33.52294,1.91254 c -2.48255,-0.48162 -3.51525,-1.79199 -3.51894,-4.46513 -0.005,-3.35873 3.74373,-5.18936 7.31017,-3.57015 1.76221,0.80007 2.46513,2.13594 2.25804,4.29127 -0.12859,1.33823 -0.34795,1.7845 -1.31093,2.667 -0.64649,0.59248 -1.49981,1.05985 -1.93502,1.05985 -0.42819,0 -0.9703,0.055 -1.2047,0.12231 -0.23439,0.0673 -0.95378,0.02 -1.59862,-0.10515 z m 3.59706,-1.91254 c 1.67541,-1.67541 1.0273,-4.82409 -1.1147,-5.41552 -2.83406,-0.78253 -4.51762,0.70864 -4.38676,3.88545 0.0993,2.41124 3.63652,3.39501 5.50146,1.53007 z m 18.69539,1.99308 c -1.78451,-0.34189 -2.14504,-0.48274 -2.72814,-1.06584 -0.34752,-0.34752 -0.63186,-0.84786 -0.63186,-1.11186 0,-0.74712 1.16567,-0.56524 2.05091,0.32 1.38332,1.38332 4.66909,0.93014 4.66909,-0.64397 0,-0.61352 -0.37116,-0.7891 -3.12062,-1.47618 -2.90634,-0.72627 -3.27938,-0.99833 -3.27938,-2.39165 0,-1.52655 1.12868,-2.19614 3.71335,-2.20294 2.10897,-0.006 3.69013,0.75009 3.91011,1.86866 0.15017,0.76354 -1.29081,0.68412 -1.7793,-0.0981 -0.86653,-1.38754 -4.39204,-1.06359 -4.18635,0.38467 0.0873,0.61429 0.49699,0.81997 2.80259,1.40681 3.30903,0.84224 4.18772,1.82371 3.23183,3.60982 -0.48158,0.89984 -3.11994,1.69411 -4.65223,1.40055 z m -228.96,-5.8577 v -5.76 h 0.96 0.96 v 5.12 5.12 h 3.52 c 3.30667,0 3.52,0.0388 3.52,0.64 0,0.60953 -0.21333,0.64 -4.48,0.64 h -4.48 z m 39.36,0.0345 v -5.79454 h 3.0583 c 3.97167,0 5.55813,0.41505 6.90737,1.80712 1.04153,1.07458 1.07433,1.18849 1.07433,3.73065 0,2.20008 -0.1149,2.78331 -0.7137,3.62278 -1.17942,1.65346 -2.65635,2.15891 -6.7263,2.30198 l -3.6,0.12654 z m 7.18539,3.99219 c 2.76267,-1.15432 3.21083,-5.64133 0.7687,-7.69625 -0.86389,-0.72692 -1.24108,-0.81048 -3.65864,-0.81048 h -2.69545 v 4.48 4.48 h 2.25028 c 1.23765,0 2.73845,-0.20397 3.33511,-0.45327 z m 12.01461,-4.02673 v -5.76 h 0.96 0.96 v 5.76 5.76 h -0.96 -0.96 z m 4.8,1.6 v -4.16 h 0.8 c 0.49778,0 0.8,0.18134 0.8,0.48 0,0.53889 0.5002,0.64508 0.79463,0.1687 0.32269,-0.52213 2.66917,-1.00824 3.82242,-0.79189 2.12427,0.39852 2.42295,1.0094 2.42295,4.95566 v 3.50753 h -0.8 c -0.79758,0 -0.8,-0.009 -0.8,-3.06103 0,-1.68358 -0.14907,-3.33958 -0.33126,-3.68 -0.46203,-0.86331 -3.12994,-0.86814 -4.19329,-0.008 -0.68168,0.55167 -0.76628,0.91103 -0.86634,3.68 -0.10827,2.99625 -0.12903,3.06863 -0.88,3.06863 l -0.76911,-1e-5 z m 12.21152,3.74208 c -0.19076,-0.22986 -0.3884,-1.84986 -0.43918,-3.6 -0.0878,-3.02392 -0.12813,-3.18716 -0.81234,-3.28433 -0.396,-0.0562 -0.72,-0.29823 -0.72,-0.53775 0,-0.23951 0.324,-0.4815 0.72,-0.53774 0.55184,-0.0784 0.74342,-0.34515 0.82028,-1.14226 0.0753,-0.7808 0.25472,-1.04 0.72,-1.04 0.49492,0 0.61972,0.22555 0.61972,1.12 0,1.03111 0.0762,1.12 0.96,1.12 0.64,0 0.96,0.16 0.96,0.48 0,0.32 -0.32,0.48 -0.96,0.48 h -0.96 v 2.58104 c 0,2.83253 0.33353,3.81896 1.29126,3.81896 0.34581,0 0.62874,0.216 0.62874,0.48 0,0.61548 -2.32682,0.66655 -2.82848,0.0621 z m 27.14848,-3.74208 v -4.16 h 0.8 c 0.60804,0 0.8,0.16695 0.8,0.69578 v 0.69578 l 0.72,-0.67299 c 0.396,-0.37014 1.152,-0.71924 1.68,-0.77577 0.78093,-0.0836 0.96,0.0166 0.96,0.5372 0,0.48362 -0.24593,0.66389 -1.00649,0.73778 -1.71189,0.1663 -2.17855,1.02768 -2.30535,4.25535 -0.10846,2.7608 -0.13506,2.84687 -0.88,2.84687 h -0.76816 z m 18.24,3.84726 c -0.36461,-0.23012 -0.50623,-1.11362 -0.58913,-3.6751 -0.0992,-3.06711 -0.16438,-3.37216 -0.72,-3.37216 -0.33598,0 -0.61087,-0.216 -0.61087,-0.48 0,-0.26666 0.28444,-0.48 0.64,-0.48 0.5181,0 0.64,-0.21333 0.64,-1.12 0,-0.98133 0.099,-1.12 0.8,-1.12 0.70095,0 0.8,0.13867 0.8,1.12 0,1.03111 0.0762,1.12 0.96,1.12 0.64,0 0.96,0.16 0.96,0.48 0,0.32 -0.32,0.48 -0.96,0.48 h -0.96 v 2.816 c 0,2.90508 0.2546,3.584 1.344,3.584 0.3168,0 0.576,0.216 0.576,0.48 0,0.55303 -2.07759,0.67368 -2.88,0.16726 z m 56.96,-5.44726 v -5.76 h 0.8 0.8 v 5.76 5.76 h -0.8 -0.8 z m 5.36,5.12774 c -0.86396,-0.68154 -0.88,-0.75792 -0.88,-4.19096 v -3.49678 h 0.8 c 0.79916,0 0.8,0.003 0.8,3.15041 0,2.64566 0.0938,3.23525 0.5852,3.68 0.86761,0.78518 2.73098,0.67422 3.77623,-0.22487 0.81228,-0.6987 0.88745,-0.97069 1.01698,-3.68 0.12258,-2.56383 0.21184,-2.92554 0.72192,-2.92554 0.52495,0 0.59173,0.37721 0.68085,3.84604 0.0544,2.11533 0.0508,3.98733 -0.008,4.16 -0.0587,0.17268 -0.38267,0.31396 -0.72001,0.31396 -0.4147,0 -0.61333,-0.22333 -0.61333,-0.68959 0,-0.67566 -0.0133,-0.67756 -0.65811,-0.094 -0.44784,0.40529 -1.29136,0.63552 -2.64,0.72056 -1.66614,0.10506 -2.12209,0.0144 -2.86189,-0.56921 z m 11.2,0.28663 c -0.4768,-0.27771 -0.56,-0.823 -0.56,-3.67027 v -3.3441 h -0.8 c -0.49778,0 -0.8,-0.18133 -0.8,-0.48 0,-0.29866 0.30222,-0.48 0.8,-0.48 0.70095,0 0.8,-0.13866 0.8,-1.12 0,-0.98133 0.0991,-1.12 0.8,-1.12 0.70095,0 0.8,0.13867 0.8,1.12 0,1.03111 0.0762,1.12 0.96,1.12 0.64,0 0.96,0.16 0.96,0.48 0,0.32 -0.32,0.48 -0.96,0.48 h -0.96 v 3.01844 c 0,2.73287 0.0603,3.03757 0.63714,3.22065 0.35042,0.11122 0.78242,0.11243 0.96,0.003 0.17757,-0.10974 0.32286,0.097 0.32286,0.45935 0,0.54977 -0.19872,0.65727 -1.2,0.64915 -0.66,-0.005 -1.452,-0.1565 -1.76,-0.3359 z m 4.56,-3.81437 v -4.16 h 0.8 0.8 v 4.16 4.16 h -0.8 -0.8 z m 16,0 v -4.16 h 0.8 c 0.5231,0 0.8,0.17888 0.8,0.51681 0,0.47371 0.0648,0.47432 0.77747,0.007 1.83247,-1.20068 5.07365,-0.78188 5.84947,0.75581 0.24132,0.47831 0.40552,2.05459 0.40834,3.92 0.005,3.11592 0.004,3.12 -0.79528,3.12 -0.79585,0 -0.8,-0.0154 -0.8,-2.9688 0,-3.74106 -0.36018,-4.39121 -2.43269,-4.39121 -1.0984,0 -1.62123,0.18483 -2.22185,0.78546 -0.71817,0.71816 -0.78546,1.03344 -0.78546,3.68 0,2.87418 -0.006,2.89454 -0.8,2.89454 h -0.8 z m -15.78667,-5.97333 c -0.11733,-0.11733 -0.21333,-0.47733 -0.21333,-0.8 0,-0.41245 0.23757,-0.58667 0.8,-0.58667 0.64,0 0.8,0.16 0.8,0.8 0,0.56243 -0.17422,0.8 -0.58667,0.8 -0.32266,0 -0.68266,-0.096 -0.8,-0.21333 z m -94.50116,-20.26322 c -4.10989,-0.57981 -5.5549,-2.06823 -5.80597,-5.98036 l -0.15036,-2.34309 h 3.88208 c 3.87955,0 3.88208,5e-4 3.88208,0.76455 0,0.4205 0.252,1.06661 0.56,1.43579 0.53463,0.64084 0.86841,0.67287 7.36786,0.70711 5.78129,0.0305 6.9273,-0.0424 7.6,-0.48317 1.02162,-0.6694 1.09075,-2.37485 0.13143,-3.24302 -0.59571,-0.53911 -1.48911,-0.61938 -9.08254,-0.816 -11.30573,-0.29274 -13.04407,-0.81223 -13.9488,-4.16847 -0.575,-2.13308 -0.27314,-6.92935 0.52178,-8.29044 0.82593,-1.41419 2.61404,-2.41165 5.09907,-2.8444 2.49665,-0.43477 17.10706,-0.44754 19.37764,-0.0169 3.73444,0.70823 5.41356,2.56391 5.41356,5.9828 v 1.69219 h -3.84 c -3.82993,0 -3.84,-0.002 -3.84,-0.76082 0,-1.51574 -0.56741,-1.63918 -7.53493,-1.63918 -5.92028,0 -6.5351,0.0524 -7.15111,0.6096 -1.00809,0.91182 -0.81253,2.63574 0.3889,3.42809 0.0314,0.0207 3.94514,0.14888 8.69714,0.2848 9.83811,0.28138 11.29646,0.55174 12.9141,2.39412 1.15043,1.31027 1.48282,2.66556 1.45276,5.92339 -0.039,4.22815 -1.2008,6.08545 -4.34826,6.95147 -2.00766,0.5524 -18.37665,0.86481 -21.58643,0.41198 z m 38.01507,0.005 c -3.79541,-0.58999 -6.32636,-2.38927 -7.06914,-5.02552 -0.54597,-1.93773 -0.77826,-9.54254 -0.38739,-12.68283 0.52251,-4.19794 1.71071,-5.92468 4.94123,-7.1808 1.11164,-0.43224 3.02515,-0.5457 10.91091,-0.64698 13.71707,-0.17617 15.83053,0.3414 17.99972,4.40796 0.53346,1.00008 0.59743,1.90808 0.59743,8.48 0,7.01117 -0.034,7.42358 -0.71705,8.70146 -0.39437,0.73781 -1.21588,1.72195 -1.82557,2.18698 -2.17927,1.66221 -3.38666,1.8358 -13.45738,1.93477 -5.104,0.0502 -10.05074,-0.0286 -10.99276,-0.17504 z m 17.7834,-6.71931 c 1.19259,-0.79064 1.52936,-2.1346 1.52936,-6.10325 0,-6.21415 -0.40125,-6.46519 -10.10661,-6.32331 l -6.68248,0.0977 -1.04545,1.04599 -1.04546,1.04599 -0.0965,3.91401 c -0.11427,4.63481 0.30272,5.88922 2.17651,6.54745 1.69712,0.59617 14.31249,0.41065 15.27064,-0.22457 z m 14.16936,-5.92887 v -12.64 h 13.28 13.28 v 2.87517 2.87517 l -9.36,0.0848 -9.36,0.0848 -0.0935,2.48 -0.0935,2.48 h 8.97346 8.97346 v 2.88 2.88 h -8.96 -8.96 v 4.32 4.32 h -3.84 -3.84 z m 40.64,3.04 v -9.6 h -5.6 -5.6 v -3.04 -3.04 h 14.88 14.88 v 3.03245 3.03244 l -5.52,0.0876 -5.52,0.0875 -0.0848,9.52 -0.0848,9.52 h -3.67524 -3.67524 z"
       id="path4792"
       inkscape:connector-curvature="0" />
  </g>
  <path
     style="fill:#29407c;fill-opacity:1;stroke:none;stroke-width:0.33483607"
     d="m 4.4630119,45.184644 -3.85062,-0.184337 -0.27973,-10.931497 c -0.15385,-6.012326 -0.15385,-15.956957 0,-22.099182 l 0.27973,-11.16768157 1.50676,-0.226308 c 1.92732,-0.289473 69.2046001,-0.281719 72.9942701,0.0084 l 2.8461,0.217895 -2.34385,1.30560697 c -3.55761,1.981712 -7.68605,6.307503 -9.45923,9.9114006 -1.79334,3.644891 -2.41633,6.365091 -2.4225,10.577484 -0.009,5.86444 1.60414,10.341439 5.24617,14.563552 2.97259,3.446052 5.33973,5.243131 9.00524,6.836592 l 2.44987,1.065003 -8.0725,0.220486 c -9.29192,0.253796 -62.14733,0.177956 -67.8997101,-0.09743 z M 58.589002,34.546437 c 2.05118,-1.095966 2.88152,-2.668873 3.06289,-5.802021 0.13832,-2.389211 0.0934,-2.625237 -0.56683,-2.978579 -0.39918,-0.213637 -1.71615,-0.339924 -2.97088,-0.284886 -2.19448,0.09626 -2.2689,0.129046 -2.82592,1.244957 -0.31465,0.630351 -0.76842,1.342422 -1.00838,1.582381 -0.591,0.590993 -5.48608,0.933326 -9.07317,0.634523 -4.30834,-0.358882 -4.38755,-0.45786 -4.52451,-5.653122 -0.12607,-4.782088 0.32337,-6.392499 1.90828,-6.837786 0.48451,-0.136124 3.19217,-0.247499 6.01703,-0.247499 5.08926,0 5.14177,0.0076 5.75866,0.83709 1.44497,1.942895 1.57039,2.009017 3.81064,2.009017 3.10207,0 3.20961,-0.07713 3.20097,-2.295968 -0.0128,-3.278662 -1.46644,-5.476268 -4.28272,-6.474417 -1.37767,-0.4882706 -16.9171,-0.6403816 -18.55634,-0.181642 -1.1313,0.316591 -3.14976,2.054493 -3.76262,3.239635 -1.06593,2.061297 -1.48265,9.250631 -0.85343,14.723724 0.23835,2.073194 0.54691,3.153933 1.16876,4.093609 1.90265,2.875107 3.76959,3.295008 14.23961,3.20269 7.41267,-0.06536 7.94915,-0.112398 9.25796,-0.811706 z m -35.63135,-0.0098 c 0.2845,-0.32228 1.11838,-1.791373 1.85305,-3.264652 1.85388,-3.717651 9.45272,-20.503953 9.45272,-20.881621 0,-0.5036016 -0.93196,-0.7155866 -3.12462,-0.7107326 -3.79354,0.0084 -3.40545,-0.472217 -8.07064,9.9945656 -1.58934,3.565848 -3.12405,6.9365 -3.41045,7.490337 l -0.52073,1.006977 -0.58367,-0.961033 c -0.32102,-0.528569 -1.79728,-3.597868 -3.28058,-6.820665 -4.72386,-10.26366 -4.77172,-10.347517 -6.0410701,-10.5856486 -1.41668,-0.265771 -4.6933,-0.0036 -5.10542,0.4085676 -0.19439,0.194382 0.42967,2.025479 1.64494,4.826597 2.73965,6.314698 8.2761601,18.240483 8.9346501,19.245471 0.52922,0.807681 0.6781,0.8378 4.14174,0.8378 3.00142,0 3.67794,-0.09645 4.11008,-0.585963 z"
     id="path4804"
     inkscape:connector-curvature="0" />
  <path
     style="fill:#29407c;fill-opacity:1;stroke:#808080;stroke-width:0;stroke-miterlimit:4;stroke-dasharray:none"
     d="M 121.32079,44.837751 C 87.173122,44.502727 84.996202,44.41792 81.395602,43.282353 71.238552,40.079 66.100582,33.489068 66.078662,23.636897 c -0.0216,-9.718461 6.00728,-18.1328306 15.30446,-21.3599946 5.113,-1.77478397 10.75113,-2.32650097 15.43036,-1.50993297 7.301188,1.27412397 12.474368,4.55750597 14.951688,9.48973857 4.77159,9.500015 0.12473,20.801107 -9.81643,23.873437 -2.325018,0.718552 -5.823588,0.862876 -7.309318,0.301523 -0.51843,-0.195875 -1.33365,-0.729098 -1.8116,-1.184941 -0.75898,-0.723872 -0.92181,-0.765169 -1.28614,-0.326179 -0.72472,0.873234 -3.94452,1.867259 -6.04835,1.867259 -4.20007,0 -7.98743,-2.429525 -9.16225,-5.877425 -1.70649,-5.008282 0.25507,-11.462138 4.75551,-15.646407 2.25865,-2.099978 4.28945,-2.96675 7.42027,-3.167071 2.94353,-0.1883356 4.93079,0.266993 6.33981,1.4526 1.01595,0.854867 1.69625,0.83851 1.69625,-0.04078 0,-0.851612 1.34426,-1.236893 3.870458,-1.109326 1.3455,0.06794 2.55906,0.236238 2.69681,0.373984 0.31896,0.318955 -0.23971,3.125551 -2.23986,11.252439 -2.000818,8.129639 -1.836968,9.038038 1.33807,7.418251 1.86173,-0.94978 4.2679,-3.494648 5.37177,-5.681392 2.65449,-5.258527 1.72512,-10.474057 -2.57456,-14.4480156 -3.57727,-3.306283 -6.766678,-4.356607 -13.215288,-4.352011 -7.10422,0.0051 -11.20068,1.519747 -15.37511,5.6850066 -3.56869,3.560842 -5.05529,6.758898 -5.51064,11.854721 -0.61618,6.895851 2.65685,12.329919 9.45671,15.700537 2.07999,1.03103 3.36539,1.428705 5.35737,1.657448 3.00992,0.345638 71.601438,0.902484 115.125708,0.934628 16.20606,0.01195 32.28396,0.120256 35.72866,0.240647 l 6.26308,0.218889 0.20746,0.944566 c 0.11411,0.519511 0.11743,1.228239 0.007,1.574948 -0.19196,0.604838 -1.01037,0.639011 -20.19882,0.843402 -37.95204,0.404261 -74.66294,0.483918 -101.53135,0.220309 z M 90.287762,29.425001 c 0.6456,-0.442373 1.56987,-1.413173 2.05394,-2.157333 1.13064,-1.738143 2.31406,-5.605824 2.31796,-7.575608 0.004,-2.005884 -1.3473,-4.36849 -2.92733,-5.118265 -1.42676,-0.677041 -1.91828,-0.680877 -3.48735,-0.02722 -5.58424,2.326329 -8.03053,11.982472 -3.84924,15.193931 1.28357,0.98585 4.22248,0.828477 5.89202,-0.315505 z"
     id="path4810"
     inkscape:connector-curvature="0" />
  <path
     style="fill:#000000;fill-opacity:1;stroke:#808080;stroke-width:0;stroke-miterlimit:4;stroke-dasharray:none"
     d="m 118.88043,33.291275 c -0.90034,-0.28713 -1.92331,-0.927242 -2.41424,-1.510688 -0.82786,-0.983849 -1.01292,-1.621988 -1.33175,-4.592214 l -0.15276,-1.423053 h 3.81875 c 3.78281,0 3.81876,0.0074 3.81876,0.785194 0,1.744188 0.63646,1.893494 8.07163,1.893494 7.78195,0 8.33533,-0.145241 8.33533,-2.187702 0,-1.988439 -0.54457,-2.130192 -9.57227,-2.491668 -13.52129,-0.541402 -14.20109,-0.893585 -14.20109,-7.357198 0,-7.2940086 2.31282,-8.3142916 18.08252,-7.9769626 6.29547,0.134666 7.38953,0.239011 8.70574,0.830302 2.07684,0.9329986 2.94512,1.9965756 3.34309,4.0950246 0.55335,2.917813 0.79395,2.732688 -3.41366,2.626527 -3.67818,-0.0928 -3.75624,-0.110986 -3.94648,-0.919303 -0.27851,-1.183378 -1.79689,-1.409332 -8.65188,-1.287517 -5.29129,0.09403 -5.84531,0.160484 -6.27817,0.753089 -0.26112,0.357478 -0.47476,1.049837 -0.47476,1.538576 0,1.787894 0.4452,1.890791 9.87766,2.282975 9.10066,0.378389 10.87106,0.645885 12.16962,1.838759 1.5174,1.39389 1.87719,2.522594 1.88434,5.911246 0.009,4.131394 -0.60366,5.496368 -3.00437,6.696721 -1.66975,0.834875 -1.70254,0.837296 -12.38893,0.914869 -8.72423,0.06333 -11.005,-0.01478 -12.27708,-0.420471 z"
     id="path4814"
     inkscape:connector-curvature="0" />
  <path
     style="fill:#000000;fill-opacity:1;stroke:#808080;stroke-width:0;stroke-miterlimit:4;stroke-dasharray:none"
     d="m 157.27472,33.345519 c -4.99523,-1.626444 -5.85398,-3.451438 -5.85769,-12.448682 -0.003,-7.050472 0.77458,-9.448623 3.60015,-11.1045116 1.31887,-0.772911 2.02412,-0.90933 5.89583,-1.140455 5.99673,-0.357979 13.17488,-0.349091 16.68847,0.02066 3.94062,0.414692 5.67658,1.223523 6.95603,3.2410086 l 1.01086,1.593952 v 7.652303 c 0,8.280937 -0.0625,8.622641 -1.89542,10.363683 -2.12632,2.019738 -2.62594,2.095688 -14.34413,2.180541 -8.07084,0.05844 -11.04525,-0.03002 -12.0541,-0.358502 z m 19.46898,-6.150413 c 1.09033,-0.624204 1.45827,-2.176371 1.45827,-6.151701 0,-6.234094 -0.14709,-6.327675 -9.94629,-6.327675 h -6.99898 l -1.09758,1.132421 -1.09759,1.132421 0.1111,4.358302 c 0.0967,3.793194 0.19794,4.454674 0.78078,5.101566 0.36832,0.408796 0.97102,0.873235 1.33934,1.032087 1.05516,0.455076 14.59614,0.211949 15.45095,-0.277421 z"
     id="path4816"
     inkscape:connector-curvature="0" />
  <path
     style="fill:#000000;fill-opacity:1;stroke:#808080;stroke-width:0;stroke-miterlimit:4;stroke-dasharray:none"
     d="M 190.92574,21.245033 V 8.6886804 h 13.22603 13.22602 v 2.6331766 2.633176 l -1.55349,0.21293 c -0.85442,0.117112 -5.06252,0.212931 -9.35132,0.212931 h -7.79782 l -0.22263,1.781857 c -0.12244,0.980022 -0.17095,2.147763 -0.1078,2.59498 l 0.11483,0.813122 8.95686,0.08918 8.95687,0.08918 v 2.673219 2.67322 h -9.04058 -9.04057 v 4.352869 4.352868 h -3.6832 -3.6832 z"
     id="path4818"
     inkscape:connector-curvature="0" />
  <path
     style="fill:#000000;fill-opacity:1;stroke:#808080;stroke-width:0;stroke-miterlimit:4;stroke-dasharray:none"
     d="m 231.44091,24.091139 v -9.710245 h -5.5248 -5.52479 V 11.534787 8.6886804 h 14.73278 14.73279 v 2.7994666 2.799467 l -1.75789,0.211148 c -0.96684,0.11613 -3.45299,0.212456 -5.52479,0.214057 l -3.76691,0.0029 v 9.542827 9.542828 h -3.6832 -3.68319 z"
     id="path4820"
     inkscape:connector-curvature="0" />
  <path
     style="fill:#000000;fill-opacity:1;stroke:#808080;stroke-width:0;stroke-miterlimit:4;stroke-dasharray:none"
     d="m 5.8901219,64.22298 c -2.1516,-0.622508 -3.68071,-2.21723 -4.11034,-4.286707 -0.21988,-1.059162 -0.0955,-3.147054 0.23882,-4.008177 0.38862,-1.001055 1.51793,-2.112247 2.77729,-2.732734 l 0.94092,-0.463592 h 2.31709 2.3170801 l 0.78653,0.387208 c 0.93072,0.458193 1.96003,1.345922 2.18507,1.884526 0.19869,0.475527 0.19948,0.454419 -0.0255,0.679371 -0.39914,0.399134 -1.40391,0.105499 -1.72841,-0.505111 -0.43139,-0.81174 -1.9935301,-1.439743 -3.5813301,-1.439743 -3.01202,0 -4.79735,1.875595 -4.66454,4.900379 0.0396,0.901216 0.10843,1.208418 0.42002,1.873857 0.49518,1.057532 1.2931,1.892254 2.26728,2.371839 0.71052,0.349788 0.87383,0.383003 1.84735,0.375712 0.80868,-0.0061 1.23038,-0.07174 1.7371,-0.27055 0.9092001,-0.356732 1.6867601,-0.975802 2.0700201,-1.648084 0.1754,-0.307669 0.42512,-0.678445 0.55493,-0.823947 0.41958,-0.470275 1.50037,-0.498611 1.50037,-0.03934 0,0.117085 -0.18699,0.586657 -0.41554,1.043493 -0.65887,1.317007 -1.70801,2.129403 -3.31995,2.570778 -0.9757801,0.267185 -3.3788601,0.343593 -4.1142901,0.130818 z"
     id="path4822"
     inkscape:connector-curvature="0" />
  <path
     style="fill:#000000;fill-opacity:1;stroke:#808080;stroke-width:0;stroke-miterlimit:4;stroke-dasharray:none"
     d="m 16.107552,58.473318 v -5.682357 h 0.94706 0.94706 v 5.071407 5.071407 l 3.26139,0.07721 c 1.88065,0.04452 3.35914,0.129521 3.49228,0.200776 0.34599,0.185169 0.302,0.685975 -0.0728,0.828463 -0.17627,0.06702 -2.0387,0.115452 -4.43934,0.115452 h -4.13568 z"
     id="path4824"
     inkscape:connector-curvature="0" />
  <path
     style="fill:#000000;fill-opacity:1;stroke:#808080;stroke-width:0;stroke-miterlimit:4;stroke-dasharray:none"
     d="m 30.021342,64.229989 c -1.90944,-0.453789 -3.68953,-1.999758 -4.15796,-3.611099 -0.42991,-1.478829 -0.28546,-3.74456 0.31727,-4.976488 1.8402,-3.761248 9.33808,-4.174564 11.57072,-0.637829 1.74154,2.758771 0.87418,7.023667 -1.71479,8.431872 -1.4322,0.779005 -4.41865,1.172984 -6.01524,0.793544 z m 4.43571,-1.347515 c 1.64043,-0.72538 2.42105,-2.058684 2.44868,-4.182364 0.023,-1.767157 -0.30115,-2.743412 -1.22832,-3.699431 -0.89273,-0.920499 -1.99153,-1.32311 -3.61102,-1.32311 -1.89922,0 -3.53822,0.916018 -4.30084,2.403696 -0.44734,0.872641 -0.59044,2.758313 -0.30091,3.965208 0.33861,1.411487 1.66042,2.648289 3.3384,3.123695 1.00011,0.283354 2.65775,0.152842 3.65401,-0.287694 z"
     id="path4832"
     inkscape:connector-curvature="0" />
  <path
     style="fill:#000000;fill-opacity:1;stroke:#808080;stroke-width:0;stroke-miterlimit:4;stroke-dasharray:none"
     d=""
     id="path4834"
     inkscape:connector-curvature="0" />
  <path
     style="fill:#000000;fill-opacity:1;stroke:#808080;stroke-width:0;stroke-miterlimit:4;stroke-dasharray:none"
     d="m 44.664472,64.210563 c -0.34567,-0.08147 -1.01107,-0.341988 -1.47865,-0.57893 -1.45064,-0.735096 -1.52793,-1.084759 -1.7469,-7.903193 l -0.0927,-2.887961 h 0.75962 0.75961 l 0.003,2.720543 c 0.004,3.249868 0.20888,5.424312 0.58757,6.222341 0.43432,0.915264 1.48958,1.353325 3.26007,1.353325 1.24573,0 1.51918,-0.05651 2.19453,-0.453538 1.38462,-0.813983 1.39359,-0.84639 1.48866,-5.378121 0.0777,-3.703119 0.10708,-4.007122 0.40869,-4.227305 0.17874,-0.130485 0.58576,-0.237245 0.9045,-0.237245 h 0.57951 l -0.0995,3.89247 c -0.13235,5.179952 -0.39106,6.025779 -2.10948,6.896565 -1.36074,0.689542 -3.83322,0.954675 -5.41852,0.581049 z"
     id="path4836"
     inkscape:connector-curvature="0" />
  <path
     style="fill:#000000;fill-opacity:1;stroke:#808080;stroke-width:0;stroke-miterlimit:4;stroke-dasharray:none"
     d="m 57.185032,60.83469 c -0.0613,-1.035899 -0.0875,-2.975855 -0.0584,-4.311014 l 0.053,-2.427562 1.33935,-0.01248 1.33934,-0.01248 -1.21378,0.06167 -1.21378,0.06167 v 4.172452 4.172452 l 1.79974,0.05382 1.79975,0.05382 -1.86694,0.03556 -1.86694,0.03556 z"
     id="path4838"
     inkscape:connector-curvature="0" />
  <path
     style="fill:#000000;fill-opacity:1;stroke:#808080;stroke-width:0;stroke-miterlimit:4;stroke-dasharray:none"
     d="m 55.465872,58.517042 v -5.771143 l 1.84973,5.36e-4 c 2.28489,6.63e-4 3.87391,0.07975 4.8302,0.240401 1.54972,0.260349 2.34913,0.660366 3.33759,1.670097 0.93363,0.953722 1.02473,1.322456 0.97564,3.948896 -0.0406,2.173349 -0.15306,2.604983 -0.93012,3.570928 -0.99951,1.242464 -2.35455,1.741905 -5.23895,1.930979 -0.87823,0.05757 -3.99021,0.180449 -4.5699,0.180449 h -0.25419 z m 5.25555,4.406327 c 0.90781,-0.09889 1.72587,-0.284476 2.14335,-0.486252 0.46628,-0.225361 1.24973,-0.977925 1.52499,-1.464875 0.1016,-0.179733 0.27228,-0.579274 0.37929,-0.887868 0.19016,-0.548376 0.19459,-0.583868 0.19527,-1.567332 8.3e-4,-1.174294 -0.0597,-1.465248 -0.48644,-2.338053 -0.23173,-0.473947 -0.35915,-0.646724 -0.81084,-1.099419 -0.59227,-0.593594 -1.04139,-0.859889 -1.66054,-0.984574 -0.2399,-0.04831 -1.10423,-0.07233 -2.6636,-0.074 l -2.30846,-0.0025 -0.0152,4.483734 -0.0152,4.483735 h 1.57127 c 0.8642,0 1.82992,-0.02818 2.14605,-0.06261 z"
     id="path4840"
     inkscape:connector-curvature="0" />
  <path
     style="fill:#000000;fill-opacity:1;stroke:#808080;stroke-width:0;stroke-miterlimit:4;stroke-dasharray:none"
     d="m 74.703022,58.487446 v -5.741547 h 0.91746 0.91746 v 5.741547 5.741548 h -0.91746 -0.91746 z"
     id="path4842"
     inkscape:connector-curvature="0" />
  <path
     style="fill:#000000;fill-opacity:1;stroke:#808080;stroke-width:0;stroke-miterlimit:4;stroke-dasharray:none"
     d="m 79.497502,60.085609 v -4.143385 l 0.42914,0.0014 c 0.77943,0.0026 1.10984,0.158773 1.10984,0.524696 0,0.247493 0.15443,0.420952 0.37477,0.420952 0.14809,0 0.24422,-0.05711 0.43197,-0.256623 0.29549,-0.314003 0.77623,-0.518314 1.63046,-0.692935 0.89281,-0.182509 1.73789,-0.213837 2.35728,-0.08739 2.04357,0.417198 2.24738,0.968517 2.24868,6.082995 l 5.9e-4,2.293659 h -0.58535 c -0.93144,0 -0.94649,-0.03089 -0.95185,-1.95331 -0.006,-2.091382 -0.12773,-3.92506 -0.30468,-4.583181 -0.14848,-0.552238 -0.81367,-0.830218 -1.97595,-0.825741 -1.11552,0.0043 -1.90195,0.249485 -2.45276,0.764702 -0.53809,0.50332 -0.6056,0.851664 -0.74108,3.824305 -0.0935,2.051039 -0.14222,2.427455 -0.34192,2.640021 -0.11243,0.119677 -0.1812,0.133204 -0.67714,0.133204 h -0.552 z"
     id="path4844"
     inkscape:connector-curvature="0" />
  <path
     style="fill:#000000;fill-opacity:1;stroke:#808080;stroke-width:0;stroke-miterlimit:4;stroke-dasharray:none"
     d="m 92.756772,61.935335 c -0.11271,-0.635019 -0.17268,-1.81866 -0.17545,-3.462686 l -0.003,-1.524174 h 0.14798 0.14798 v 2.6932 c 0,1.48126 -0.0106,2.6932 -0.0235,2.6932 -0.0129,0 -0.0554,-0.179793 -0.0944,-0.39954 z"
     id="path4846"
     inkscape:connector-curvature="0" />
  <path
     style="fill:#000000;fill-opacity:1;stroke:#808080;stroke-width:0;stroke-miterlimit:4;stroke-dasharray:none"
     d="m 92.338412,64.14821 c -0.46597,-0.125657 -0.66402,-0.276838 -0.74995,-0.572483 -0.13732,-0.472504 -0.24957,-1.558366 -0.31292,-3.02726 -0.0896,-2.078043 -0.16224,-2.97762 -0.25907,-3.209357 -0.10272,-0.245852 -0.27754,-0.365763 -0.61161,-0.419512 -0.1376,-0.02214 -0.33737,-0.09901 -0.44393,-0.170822 -0.15566,-0.104899 -0.19375,-0.170371 -0.19375,-0.333022 0,-0.251951 0.21947,-0.417706 0.69355,-0.523801 0.52699,-0.117933 0.68206,-0.353412 0.81202,-1.233013 0.11057,-0.748417 0.23685,-0.916656 0.68804,-0.916656 0.4563,0 0.51327,0.09882 0.57665,1.000118 0.0292,0.415739 0.0794,0.826852 0.11151,0.913586 0.0763,0.206312 0.26501,0.271464 0.88061,0.304086 0.5762,0.03054 0.86349,0.145649 0.91939,0.368401 0.0972,0.387244 -0.30866,0.560809 -1.31137,0.560809 h -0.55999 l 0.003,2.027299 c 0.005,2.866923 0.11558,3.610731 0.61291,4.108061 0.20098,0.200976 0.29994,0.253027 0.5406,0.284348 0.42355,0.05512 0.66921,0.178355 0.71439,0.358372 0.0524,0.208836 -0.10167,0.364097 -0.46985,0.473433 -0.35772,0.106233 -1.25893,0.110305 -1.64049,0.0074 z"
     id="path4848"
     inkscape:connector-curvature="0" />
  <path
     style="fill:#000000;fill-opacity:1;stroke:#808080;stroke-width:0;stroke-miterlimit:4;stroke-dasharray:none"
     d="m 100.18483,64.462028 c -0.599638,-0.05878 -1.454748,-0.293322 -1.980678,-0.543266 -0.41045,-0.195057 -0.59248,-0.330185 -1.00794,-0.748193 -0.55852,-0.561959 -0.8397,-1.02812 -1.07534,-1.782753 -0.11855,-0.379688 -0.13817,-0.563861 -0.13554,-1.272611 0.003,-0.73107 0.0223,-0.891425 0.16632,-1.361398 0.3949,-1.288722 0.87242,-1.912785 1.84311,-2.408742 1.27437,-0.651115 2.541668,-0.83578 3.729038,-0.543378 1.61815,0.398482 2.69581,1.32194 3.07498,2.634966 0.053,0.183672 0.14439,0.696416 0.20301,1.139431 l 0.10657,0.805481 -2.78732,0.0013 c -3.877448,0.0019 -4.532788,0.06514 -4.628598,0.446881 -0.14712,0.586159 0.58417,1.717991 1.38622,2.145477 1.175438,0.626507 2.523938,0.440745 3.765518,-0.518718 0.56465,-0.436352 1.01775,-0.663936 1.39376,-0.700066 0.25739,-0.02473 0.29561,-0.01216 0.38694,0.127237 0.42276,0.6452 -1.0792,1.910592 -2.81571,2.37222 -0.71776,0.190808 -1.18085,0.249562 -1.62434,0.206089 z m 2.26181,-5.02683 c 0.94399,-0.08513 1.10959,-0.232026 0.96914,-0.859641 -0.23231,-1.038035 -1.42723,-1.802906 -2.81661,-1.802906 -1.425978,0 -2.649648,0.776314 -2.874208,1.823446 -0.1289,0.601004 0.0398,0.760425 0.88418,0.835642 0.73334,0.06532 3.127588,0.06748 3.837498,0.0035 z"
     id="path4850"
     inkscape:connector-curvature="0" />
  <path
     style="fill:#000000;fill-opacity:1;stroke:#808080;stroke-width:0;stroke-miterlimit:4;stroke-dasharray:none"
     d="m 110.04017,67.54371 c -0.73532,-0.124943 -1.7556,-0.526695 -2.23286,-0.879231 -0.27991,-0.20676 -0.48994,-0.564288 -0.48994,-0.83403 0,-0.112563 0.0617,-0.248074 0.1663,-0.36511 0.13416,-0.150154 0.22279,-0.190998 0.45873,-0.211398 0.35857,-0.031 0.60327,0.103344 0.82343,0.45209 0.36877,0.584176 1.49138,0.962579 2.8725,0.968244 1.09112,0.0045 1.86344,-0.237061 2.41868,-0.756425 0.46882,-0.438526 0.563,-0.721377 0.58921,-1.769632 0.0138,-0.552288 6.5e-4,-0.871822 -0.0353,-0.858273 -0.0315,0.01187 -0.36033,0.175533 -0.73066,0.363692 -1.01294,0.514664 -1.38357,0.595641 -2.74501,0.599745 -0.91436,0.0028 -1.19657,-0.01674 -1.50938,-0.104269 -1.30525,-0.365239 -2.36611,-1.530338 -2.75678,-3.027658 -0.16191,-0.620595 -0.15047,-1.690231 0.0247,-2.305789 0.36444,-1.280802 1.19514,-2.193283 2.45402,-2.69559 0.75021,-0.299347 1.29399,-0.414617 1.95592,-0.414617 0.72326,0 1.17451,0.10526 1.96242,0.457757 0.91722,0.410346 1.15731,0.496303 1.27868,0.457782 0.0618,-0.01961 0.11231,-0.08495 0.11231,-0.1452 0,-0.354853 0.25547,-0.484185 1.03078,-0.521838 l 0.58685,-0.0285 -0.0389,3.693035 c -0.0389,3.69155 -0.086,4.723348 -0.2536,5.557559 -0.1791,0.891316 -0.62283,1.527362 -1.29522,1.856602 -0.3879,0.189934 -1.128,0.371336 -1.97512,0.484112 -0.66218,0.08815 -2.21904,0.103854 -2.67168,0.02694 z m 3.10641,-4.489324 c 0.46228,-0.216324 1.01929,-0.757338 1.23479,-1.199315 0.21437,-0.439645 0.27571,-0.826474 0.27571,-1.738477 0,-2.285694 -0.91248,-3.222937 -3.14106,-3.226283 -1.21592,-0.0018 -1.68524,0.154547 -2.25361,0.750888 -0.74579,0.78249 -1.10044,2.06705 -0.87426,3.166589 0.0355,0.172517 0.16764,0.529729 0.29368,0.793805 0.55964,1.172556 1.18738,1.596155 2.48297,1.6755 0.89716,0.05494 1.54373,-0.01772 1.98178,-0.222707 z"
     id="path4852"
     inkscape:connector-curvature="0" />
  <path
     style="fill:#000000;fill-opacity:1;stroke:#808080;stroke-width:0;stroke-miterlimit:4;stroke-dasharray:none"
     d="m 118.85966,60.085609 v -4.143385 l 0.45873,3.31e-4 c 0.51478,3.7e-4 0.85222,0.07474 0.96707,0.213118 0.0456,0.0549 0.0876,0.309254 0.10243,0.620494 0.0139,0.2901 0.0377,0.527455 0.0529,0.527455 0.0153,0 0.22836,-0.184879 0.47359,-0.410843 0.69697,-0.642212 1.5132,-1.009746 2.24248,-1.009746 0.4362,0 0.57921,0.128325 0.57921,0.519743 0,0.476418 -0.20333,0.627588 -0.98396,0.731571 -1.18038,0.15723 -1.70635,0.592284 -1.99367,1.649056 -0.17933,0.659599 -0.23441,1.150926 -0.33109,2.953204 -0.13333,2.485311 -0.13629,2.492387 -1.04299,2.492387 h -0.52474 z"
     id="path4854"
     inkscape:connector-curvature="0" />
  <path
     style="fill:#000000;fill-opacity:1;stroke:#808080;stroke-width:0;stroke-miterlimit:4;stroke-dasharray:none"
     d="m 127.08724,64.279758 c -0.97735,-0.161451 -1.8108,-0.905536 -2.047,-1.827505 -0.19644,-0.76677 0.006,-1.447502 0.59659,-2.006053 0.62021,-0.586565 1.22799,-0.771119 3.43332,-1.042534 1.69819,-0.209002 2.2236,-0.344147 2.58986,-0.666155 0.30643,-0.269409 0.21075,-0.986291 -0.18403,-1.378785 -0.58595,-0.582576 -2.29376,-0.752964 -3.56522,-0.355701 -0.49208,0.153751 -0.74579,0.324447 -0.96306,0.64796 -0.25191,0.375086 -0.47104,0.493105 -0.86175,0.464126 -0.53464,-0.03965 -0.66382,-0.331545 -0.39841,-0.900276 0.26613,-0.570302 0.99777,-1.040255 2.04667,-1.314635 0.83775,-0.219148 2.13449,-0.253745 3.13114,-0.08354 2.00965,0.343207 2.39215,0.917955 2.55568,3.840206 0.10568,1.88852 0.17548,2.782338 0.24121,3.088832 0.0761,0.35509 0.25145,0.595426 0.43428,0.595426 0.26799,0 0.46021,0.386584 0.30784,0.619123 -0.30377,0.463616 -1.52409,0.303228 -2.25599,-0.296507 -0.40267,-0.329959 -0.59127,-0.330012 -1.32472,-3.55e-4 -0.68847,0.30942 -1.53553,0.530105 -2.38748,0.622006 -0.65708,0.07086 -0.89178,0.06988 -1.34893,-0.0056 z m 2.75239,-1.141312 c 0.86505,-0.238313 1.50328,-0.694992 1.78868,-1.279862 0.18334,-0.375732 0.32281,-0.956609 0.30122,-1.254547 -0.0271,-0.373463 -0.1798,-0.429453 -1.14284,-0.418963 -0.87044,0.0095 -1.75586,0.12833 -2.56027,0.343662 -0.91117,0.243913 -1.3413,0.514445 -1.58022,0.993903 -0.37145,0.74539 -0.006,1.48629 0.83866,1.698152 0.34962,0.08774 1.93913,0.03216 2.35477,-0.08234 z"
     id="path4856"
     inkscape:connector-curvature="0" />
  <path
     style="fill:#000000;fill-opacity:1;stroke:#808080;stroke-width:0;stroke-miterlimit:4;stroke-dasharray:none"
     d="m 137.68247,64.146885 c -0.44042,-0.09766 -0.68989,-0.239461 -0.80172,-0.455702 -0.21405,-0.41393 -0.30783,-1.358162 -0.44336,-4.463846 -0.0897,-2.05481 -0.15142,-2.273399 -0.66299,-2.346914 -0.34755,-0.04994 -0.51124,-0.141181 -0.5806,-0.323617 -0.12118,-0.318723 0.20887,-0.614582 0.68561,-0.614582 0.41515,0 0.55619,-0.303097 0.55863,-1.200523 0.002,-0.585322 0.099,-0.896984 0.30019,-0.960853 0.2043,-0.06484 0.86163,-0.0454 1.00183,0.02964 0.18271,0.09778 0.23804,0.29936 0.24094,0.877779 0.003,0.615325 0.069,0.995748 0.19419,1.12095 0.0638,0.06377 0.27862,0.106605 0.69734,0.139039 0.33284,0.02578 0.68293,0.07909 0.77798,0.118455 0.19207,0.07956 0.2908,0.270033 0.24022,0.463446 -0.062,0.2371 -0.34145,0.320596 -1.16514,0.348123 l -0.76221,0.02547 0.0333,2.345618 c 0.0358,2.520519 0.0872,3.04139 0.34649,3.511032 0.18912,0.34256 0.45509,0.507963 0.89727,0.55799 0.28591,0.03235 0.39864,0.07615 0.52744,0.204958 0.19205,0.192042 0.19872,0.236542 0.0602,0.401839 -0.22567,0.269373 -1.38873,0.389544 -2.14568,0.221698 z"
     id="path4858"
     inkscape:connector-curvature="0" />
  <path
     style="fill:#000000;fill-opacity:1;stroke:#808080;stroke-width:0;stroke-miterlimit:4;stroke-dasharray:none"
     d="m 144.60784,64.262403 c -1.25953,-0.266295 -2.20469,-0.998332 -2.7562,-2.134697 -0.33508,-0.690409 -0.45457,-1.206585 -0.45906,-1.982906 -0.005,-0.79884 0.1314,-1.415251 0.46367,-2.101288 0.41341,-0.853546 0.96774,-1.425576 1.80213,-1.859674 0.77215,-0.401719 1.24999,-0.506905 2.28126,-0.502175 0.78932,0.0036 0.94648,0.02189 1.41592,0.164588 0.56296,0.171127 1.19059,0.463448 1.60033,0.745355 0.60647,0.41726 1.11161,1.163545 1.30328,1.925436 0.0784,0.311836 0.26779,1.575161 0.26779,1.786771 0,0.06338 -0.68385,0.07775 -3.69945,0.07775 h -3.69945 v 0.551773 c 0,0.749243 0.10689,1.044817 0.52833,1.460975 0.59377,0.58632 1.39795,0.887622 2.36907,0.887622 0.87513,0 1.48676,-0.225498 2.12765,-0.784435 0.55174,-0.481194 0.96753,-0.711476 1.34044,-0.742401 0.68421,-0.05674 0.75059,0.06421 0.40945,0.746118 -0.26912,0.537934 -0.65452,0.886521 -1.35912,1.229289 -0.84564,0.411378 -1.534,0.566041 -2.63383,0.591775 -0.62837,0.0147 -1.0387,-0.0042 -1.30221,-0.05988 z m 3.12039,-4.827634 c 0.78723,-0.06123 1.10819,-0.157595 1.16963,-0.35119 0.10782,-0.339708 -0.47271,-1.272902 -1.08391,-1.74237 -0.48044,-0.369029 -0.77546,-0.502894 -1.28178,-0.581611 -1.66286,-0.258519 -3.40411,0.821214 -3.40411,2.110859 0,0.266472 0.0962,0.397782 0.34783,0.474626 0.43353,0.132405 3.00557,0.186652 4.25234,0.08969 z"
     id="path4860"
     inkscape:connector-curvature="0" />
  <path
     style="fill:#000000;fill-opacity:1;stroke:#808080;stroke-width:0;stroke-miterlimit:4;stroke-dasharray:none"
     d="m 155.49902,64.259037 c -1.64721,-0.368966 -2.46011,-1.018335 -3.00994,-2.40445 -1.11656,-2.814836 0.50325,-5.725588 3.42391,-6.152644 1.04391,-0.15264 1.91663,0.03219 3.26131,0.690703 0.49129,0.240596 0.9018,0.437446 0.91225,0.437446 0.0104,0 0.0288,-0.80574 0.0408,-1.790534 0.0245,-2.019393 0.0541,-2.187434 0.39748,-2.262858 0.26003,-0.05711 0.50973,0.01241 0.59052,0.16441 0.16198,0.304736 0.19211,0.926223 0.22297,4.599277 0.0318,3.779968 -0.0201,5.871948 -0.1574,6.347561 -0.0731,0.253306 -0.20026,0.341046 -0.49419,0.341046 -0.31203,0 -0.57075,-0.241954 -0.57075,-0.533755 0,-0.272292 -0.13472,-0.433688 -0.31699,-0.379779 -0.0698,0.02065 -0.26013,0.115619 -0.4229,0.211046 -0.51013,0.299058 -1.1099,0.56584 -1.50938,0.67138 -0.53384,0.141039 -1.85828,0.175246 -2.36765,0.06115 z m 2.25332,-1.013299 c 1.04805,-0.310955 1.70846,-0.952628 2.09224,-2.032881 0.16682,-0.469543 0.17955,-0.562933 0.17786,-1.304821 -0.002,-0.730523 -0.0162,-0.83717 -0.16923,-1.243016 -0.40659,-1.078231 -0.93938,-1.553305 -1.96131,-1.748831 -0.53405,-0.102182 -1.3752,-0.111873 -1.81285,-0.02089 -1.94128,0.403593 -2.99342,2.790583 -2.05578,4.663938 0.3965,0.792191 1.21588,1.456992 2.08391,1.690786 0.42741,0.115116 1.24994,0.112971 1.64516,-0.0043 z"
     id="path4862"
     inkscape:connector-curvature="0" />
  <path
     style="fill:#000000;fill-opacity:1;stroke:#808080;stroke-width:0;stroke-miterlimit:4;stroke-dasharray:none"
     d="m 174.17385,64.463168 c -1.06521,-0.117633 -2.40157,-0.520932 -3.09874,-0.935168 -0.7322,-0.435051 -1.30999,-1.199093 -1.57071,-2.077037 -0.12893,-0.434157 -0.12018,-0.619985 0.0377,-0.801735 0.24292,-0.279583 0.83484,-0.273419 1.17431,0.01223 0.10579,0.08902 0.29139,0.375859 0.42934,0.663546 0.17514,0.365255 0.34258,0.606181 0.59968,0.86286 1.36111,1.35891 4.66853,1.463184 6.049,0.190708 0.33929,-0.312745 0.49816,-0.626076 0.53752,-1.060078 0.0748,-0.825358 -0.44763,-1.35689 -1.82009,-1.851664 -0.24416,-0.08802 -1.20306,-0.356122 -2.13088,-0.595779 -2.84187,-0.734058 -3.43854,-0.97524 -4.05573,-1.639369 -0.43643,-0.469636 -0.5806,-0.866209 -0.54813,-1.507779 0.0329,-0.650644 0.29424,-1.193193 0.83121,-1.725826 0.84152,-0.83472 1.9299,-1.27726 3.51797,-1.430426 2.16906,-0.2092 4.20557,0.51115 5.1058,1.806008 0.32032,0.46074 0.57726,1.380668 0.41384,1.481668 -0.0342,0.02116 -0.31396,0.03847 -0.62162,0.03847 -0.7157,0 -0.92029,-0.09891 -0.98467,-0.476008 -0.11544,-0.676198 -0.83517,-1.240392 -1.99435,-1.563344 -0.38732,-0.107913 -0.61365,-0.125893 -1.60513,-0.127525 -1.05698,-0.0017 -1.18182,0.0092 -1.48165,0.129465 -0.37651,0.151055 -0.91167,0.582666 -1.28154,1.033559 -0.33963,0.414037 -0.34248,0.612678 -0.0158,1.101892 0.53781,0.80538 1.19109,1.093891 4.16997,1.841608 2.06938,0.519425 2.6257,0.71388 3.2643,1.141003 0.85146,0.569492 1.16235,1.265801 1.0205,2.285639 -0.19458,1.398982 -1.19367,2.369039 -2.90221,2.817873 -1.24442,0.326909 -2.32638,0.464011 -3.03994,0.385211 z"
     id="path4870"
     inkscape:connector-curvature="0" />
  <path
     style="fill:#000000;fill-opacity:1;stroke:#808080;stroke-width:0;stroke-miterlimit:4;stroke-dasharray:none"
     d="m 186.05375,64.277927 c -1.75428,-0.220052 -2.9122,-0.880271 -3.4472,-1.965501 -0.33713,-0.68387 -0.43297,-1.186725 -0.43003,-2.256412 0.002,-0.704894 0.0276,-0.981011 0.12432,-1.339832 0.19807,-0.734489 0.49934,-1.262811 1.01123,-1.773294 1.07653,-1.073575 2.74347,-1.448509 4.83091,-1.086581 1.48912,0.258191 2.62086,0.996119 3.12748,2.039227 0.3419,0.703959 0.42018,1.09027 0.4138,2.042097 -0.009,1.411338 -0.32089,2.230748 -1.17086,3.080718 -1.05532,1.055325 -2.60306,1.492465 -4.45965,1.259578 z m 1.50783,-0.999933 c 0.57543,-0.07846 0.95983,-0.25197 1.38364,-0.624546 0.87758,-0.771496 1.23769,-1.519286 1.23915,-2.573168 0.001,-0.975273 -0.38547,-1.994773 -0.94915,-2.501564 -1.10763,-0.995859 -3.24457,-1.11933 -4.41647,-0.25518 -0.37994,0.280165 -0.58601,0.546025 -0.81874,1.0563 -0.37315,0.818162 -0.42452,2.132176 -0.11896,3.043006 0.36309,1.082355 0.85565,1.533419 1.92387,1.761812 0.75426,0.161264 1.1171,0.180544 1.75666,0.09334 z"
     id="path4872"
     inkscape:connector-curvature="0" />
  <path
     style="fill:#000000;fill-opacity:1;stroke:#808080;stroke-width:0;stroke-miterlimit:4;stroke-dasharray:none"
     d="m 194.0325,58.487446 v -5.741547 h 0.76949 0.76948 v 5.741547 5.741548 h -0.76948 -0.76949 z"
     id="path4874"
     inkscape:connector-curvature="0" />
  <path
     style="fill:#000000;fill-opacity:1;stroke:#808080;stroke-width:0;stroke-miterlimit:4;stroke-dasharray:none"
     d="m 200.65038,64.16723 c -0.48344,-0.05637 -0.99773,-0.315051 -1.45227,-0.730475 -0.64575,-0.590178 -0.66708,-0.736399 -0.66708,-4.574395 v -2.931229 l 0.59039,0.02034 c 0.50756,0.01749 0.60806,0.03804 0.71637,0.146449 0.18266,0.182828 0.22658,0.707672 0.22967,2.74467 0.004,2.654007 0.1025,3.393373 0.51241,3.847089 0.40406,0.447246 1.30222,0.696462 2.13121,0.591356 0.77116,-0.09777 1.34996,-0.359118 1.90951,-0.862197 0.61902,-0.556556 0.72467,-0.972863 0.8643,-3.405747 0.10708,-1.865809 0.16908,-2.448124 0.29196,-2.742224 0.15845,-0.379232 0.59821,-0.432979 0.77324,-0.0945 0.0493,0.09528 0.11556,0.356419 0.14731,0.58031 0.0901,0.635535 0.17793,3.231397 0.1788,5.286723 l 8e-4,1.869003 -0.13949,0.131045 c -0.16184,0.152037 -0.4744,0.216809 -0.77452,0.160505 -0.25522,-0.04788 -0.38783,-0.265332 -0.38901,-0.63792 -0.001,-0.33219 -0.0541,-0.520862 -0.14655,-0.520862 -0.0409,0 -0.25063,0.144494 -0.46609,0.321099 -0.61786,0.506449 -1.26177,0.69311 -2.76045,0.800216 -0.94333,0.06742 -0.97855,0.06743 -1.55051,7.46e-4 z"
     id="path4876"
     inkscape:connector-curvature="0" />
  <path
     style="fill:#000000;fill-opacity:1;stroke:#808080;stroke-width:0;stroke-miterlimit:4;stroke-dasharray:none"
     d="m 211.585,64.163153 c -0.92097,-0.134175 -1.25877,-0.344146 -1.39109,-0.864692 -0.10395,-0.40891 -0.17487,-2.180638 -0.17749,-4.434185 l -0.002,-1.961224 -0.57711,-0.02673 c -0.31742,-0.0147 -0.64743,-0.06069 -0.73337,-0.102198 -0.33137,-0.160057 -0.33137,-0.561036 0,-0.712864 0.0859,-0.03937 0.34994,-0.09024 0.58667,-0.113036 0.64409,-0.06202 0.67559,-0.108528 0.73311,-1.082463 0.0553,-0.936531 0.11721,-1.066733 0.5295,-1.113614 0.45737,-0.05201 0.76816,0.01206 0.89661,0.184832 0.0952,0.127985 0.12114,0.287687 0.148,0.909732 0.0439,1.016919 0.0688,1.04773 0.89057,1.102941 0.67542,0.04538 0.90196,0.129499 0.98506,0.365776 0.13351,0.379657 -0.16862,0.52942 -1.13579,0.562982 l -0.72509,0.02516 4.5e-4,2.523279 c 2.6e-4,1.433763 0.0267,2.689405 0.0612,2.908021 0.10923,0.691722 0.33483,0.857544 1.16959,0.859686 0.62122,0.0016 0.66049,0.02619 0.66197,0.414553 0.001,0.306363 -0.12443,0.48142 -0.40038,0.558058 -0.25731,0.07146 -1.01579,0.06946 -1.52013,-0.004 z"
     id="path4878"
     inkscape:connector-curvature="0" />
  <path
     style="fill:#000000;fill-opacity:1;stroke:#808080;stroke-width:0;stroke-miterlimit:4;stroke-dasharray:none"
     d="m 215.16376,60.085609 v -4.143385 h 0.76949 0.76949 v 4.143385 4.143385 h -0.76949 -0.76949 z"
     id="path4880"
     inkscape:connector-curvature="0" />
  <path
     style="fill:#000000;fill-opacity:1;stroke:#808080;stroke-width:0;stroke-miterlimit:4;stroke-dasharray:none"
     d="m 215.52272,54.181194 c -0.13471,-0.06856 -0.2281,-0.173427 -0.27665,-0.310662 -0.10358,-0.29276 -0.0994,-0.7188 0.009,-0.873 0.12163,-0.173648 0.51084,-0.271434 0.89122,-0.22391 0.40507,0.05061 0.51282,0.173791 0.54534,0.623441 0.0491,0.679197 -0.0977,0.887858 -0.62485,0.887715 -0.20686,-5.6e-5 -0.42011,-0.04068 -0.54371,-0.103584 z"
     id="path4882"
     inkscape:connector-curvature="0" />
  <path
     style="fill:#000000;fill-opacity:1;stroke:#808080;stroke-width:0;stroke-miterlimit:4;stroke-dasharray:none"
     d="m 223.33224,64.339842 c -0.91348,-0.105717 -1.83926,-0.404556 -2.45652,-0.792959 -0.39105,-0.246058 -0.92743,-0.83324 -1.11919,-1.225169 -0.37018,-0.756629 -0.57618,-2.115946 -0.45599,-3.009002 0.21873,-1.625275 1.26902,-2.850197 2.89056,-3.371178 1.34221,-0.431235 2.77959,-0.343518 4.20214,0.256437 1.83711,0.774792 2.61647,2.189768 2.3875,4.334634 -0.12631,1.183194 -0.29108,1.591701 -0.90878,2.253132 -0.77254,0.827223 -1.78598,1.442917 -2.3762,1.443606 -0.1645,1.78e-4 -0.56312,0.04015 -0.88584,0.08879 -0.63984,0.09644 -0.63299,0.09632 -1.27768,0.02171 z m 1.45246,-1.088393 c 1.15653,-0.293984 1.99563,-1.0688 2.36748,-2.18609 0.12843,-0.38589 0.1563,-0.577366 0.15505,-1.065442 -0.002,-0.9733 -0.28183,-1.722037 -0.87414,-2.343014 -0.38709,-0.405826 -0.75523,-0.614276 -1.3564,-0.768029 -2.07828,-0.531535 -3.57156,0.2465 -4.09058,2.131293 -0.0814,0.29557 -0.10646,0.611106 -0.10817,1.361398 l -0.002,0.976655 0.19233,0.393134 c 0.33548,0.685704 1.10039,1.267157 1.96815,1.496092 0.43152,0.113846 1.30848,0.115854 1.7485,0.004 z"
     id="path4884"
     inkscape:connector-curvature="0" />
  <path
     style="fill:#000000;fill-opacity:1;stroke:#808080;stroke-width:0;stroke-miterlimit:4;stroke-dasharray:none"
     d="m 231.14539,60.078725 v -4.150269 l 0.59029,0.02371 c 0.72698,0.0292 0.88294,0.117453 0.97611,0.55235 0.0338,0.157513 0.0955,0.297718 0.1373,0.311567 0.0418,0.01385 0.26818,-0.08927 0.50313,-0.229153 0.8628,-0.513689 1.26474,-0.653331 2.17943,-0.757174 0.92031,-0.10448 2.0676,0.07989 2.79854,0.449723 0.35943,0.181864 0.84102,0.626308 0.98548,0.909463 0.28054,0.549917 0.41127,1.951846 0.41194,4.417928 5.4e-4,1.972742 -0.0407,2.383803 -0.25435,2.533431 -0.14663,0.102704 -0.81502,0.122163 -0.98946,0.02881 -0.20941,-0.112071 -0.2448,-0.445607 -0.29517,-2.78129 -0.027,-1.253374 -0.076,-2.428548 -0.10874,-2.611497 -0.18854,-1.052292 -0.42326,-1.438154 -1.04497,-1.7179 -0.24485,-0.11017 -0.42884,-0.137324 -1.06544,-0.157236 -1.2636,-0.03953 -1.80074,0.130736 -2.45859,0.77932 -0.41244,0.406629 -0.62564,0.803164 -0.70978,1.320114 -0.0308,0.189185 -0.0708,1.236535 -0.0888,2.327444 -0.04,2.418663 -0.0537,2.576909 -0.23766,2.760897 -0.12866,0.128667 -0.18831,0.140036 -0.73463,0.140036 h -0.59461 z"
     id="path4886"
     inkscape:connector-curvature="0" />
  <path
     style="fill:#000000;fill-opacity:1;stroke:#808080;stroke-width:0;stroke-miterlimit:4;stroke-dasharray:none"
     d="m 244.96654,64.310622 c -1.51882,-0.273666 -2.13289,-0.524904 -2.65114,-1.084682 -0.78129,-0.843877 -0.77476,-1.545692 0.0137,-1.469934 0.40045,0.03848 0.84535,0.272783 1.33527,0.703221 0.6748,0.592857 1.44707,0.879843 2.36765,0.879843 1.3704,0 2.39725,-0.639 2.39725,-1.491792 0,-0.607542 -0.3178,-0.761404 -3.03318,-1.468546 -2.15153,-0.5603 -2.66128,-0.761502 -3.04949,-1.203658 -0.30709,-0.349747 -0.40079,-1.155303 -0.21247,-1.82648 0.18802,-0.670106 0.82825,-1.169614 1.76701,-1.378623 0.57234,-0.12743 2.23103,-0.179474 2.90037,-0.091 0.58934,0.0779 1.39533,0.327094 1.80533,0.558178 0.77333,0.435867 1.26212,1.331647 0.8747,1.603011 -0.18154,0.127155 -0.7254,0.117033 -1.02504,-0.01908 -0.13594,-0.06175 -0.38413,-0.273779 -0.57514,-0.491344 -0.54003,-0.615095 -1.17805,-0.875464 -2.14529,-0.875464 -0.83845,0 -1.50745,0.222108 -1.85241,0.615005 -0.41973,0.478037 -0.25506,1.101338 0.37263,1.410503 0.26616,0.131097 1.01019,0.36466 2.10128,0.659625 1.78517,0.482599 2.59909,0.829628 3.17035,1.351723 0.3982,0.363934 0.52399,0.669945 0.48605,1.182447 -0.0391,0.528369 -0.24532,1.019156 -0.56076,1.334592 -0.49593,0.495931 -1.7945,0.992063 -2.9757,1.136902 -0.63693,0.0781 -0.92245,0.07159 -1.51093,-0.03444 z"
     id="path4888"
     inkscape:connector-curvature="0" />
</svg>
