<?xml version="1.0" encoding="UTF-8" standalone="no"?>
<!-- Created with Inkscape (http://www.inkscape.org/) -->

<svg
   xmlns:dc="http://purl.org/dc/elements/1.1/"
   xmlns:cc="http://creativecommons.org/ns#"
   xmlns:rdf="http://www.w3.org/1999/02/22-rdf-syntax-ns#"
   xmlns:svg="http://www.w3.org/2000/svg"
   xmlns="http://www.w3.org/2000/svg"
   xmlns:sodipodi="http://sodipodi.sourceforge.net/DTD/sodipodi-0.dtd"
   xmlns:inkscape="http://www.inkscape.org/namespaces/inkscape"
   version="1.1"
   id="svg3713"
   width="68.235802"
   height="59.707577"
   viewBox="0 0 68.235802 59.707577"
   sodipodi:docname="vcsoft-small.svg"
   inkscape:version="0.92.4 (5da689c313, 2019-01-14)">
  <metadata
     id="metadata3719">
    <rdf:RDF>
      <cc:Work
         rdf:about="">
        <dc:format>image/svg+xml</dc:format>
        <dc:type
           rdf:resource="http://purl.org/dc/dcmitype/StillImage" />
        <dc:title></dc:title>
      </cc:Work>
    </rdf:RDF>
  </metadata>
  <defs
     id="defs3717" />
  <sodipodi:namedview
     pagecolor="#ffffff"
     bordercolor="#666666"
     borderopacity="1"
     objecttolerance="10"
     gridtolerance="10"
     guidetolerance="10"
     inkscape:pageopacity="0"
     inkscape:pageshadow="2"
     inkscape:window-width="1011"
     inkscape:window-height="848"
     id="namedview3715"
     showgrid="false"
     inkscape:zoom="8"
     inkscape:cx="37.619272"
     inkscape:cy="16.852393"
     inkscape:window-x="849"
     inkscape:window-y="115"
     inkscape:window-maximized="0"
     inkscape:current-layer="svg3713"
     showguides="true"
     inkscape:guide-bbox="true"
     inkscape:pagecheckerboard="true">
    <sodipodi:guide
       position="0,64.451442"
       orientation="1,0"
       id="guide4890"
       inkscape:locked="false" />
    <sodipodi:guide
       position="62.9325,49.248642"
       orientation="1,0"
       id="guide4892"
       inkscape:locked="false" />
    <sodipodi:guide
       position="4.94975,38.642042"
       orientation="1,0"
       id="guide4894"
       inkscape:locked="false" />
    <sodipodi:guide
       position="71.594562,20.32932"
       orientation="1,0"
       id="guide4896"
       inkscape:locked="false" />
  </sodipodi:namedview>
  <path
     style="fill:#29407c;fill-opacity:1;stroke:none;stroke-width:0.33483607"
     d="M 0,0.02299 68.2358,0 68.2348,45.232025 0.02654,44.957587 Z m 60.0979,33.908922 c 2.05118,-1.095966 2.88152,-2.668873 3.06289,-5.802021 0.13832,-2.389211 0.0934,-2.625237 -0.56683,-2.978579 -0.39918,-0.213637 -1.71615,-0.339924 -2.97088,-0.284886 -2.19448,0.09626 -2.2689,0.129046 -2.82592,1.244957 -0.31465,0.630351 -0.76842,1.342422 -1.00838,1.582381 -0.591,0.590993 -5.48608,0.933326 -9.07317,0.634523 -4.30834,-0.358882 -4.38755,-0.45786 -4.52451,-5.653122 -0.12607,-4.782088 0.32337,-6.392499 1.90828,-6.837786 0.48451,-0.136124 3.19217,-0.247499 6.01703,-0.247499 5.08926,0 5.14177,0.0076 5.75866,0.83709 1.44497,1.942895 1.57039,2.009017 3.81064,2.009017 3.10207,0 3.20961,-0.07713 3.20097,-2.295968 C 62.87388,12.861357 61.42024,10.663751 58.60396,9.665602 57.22629,9.177331 41.68686,9.02522 40.04762,9.48396 c -1.1313,0.316591 -3.14976,2.054493 -3.76262,3.239635 -1.06593,2.061297 -1.48265,9.250631 -0.85343,14.723724 0.23835,2.073194 0.54691,3.153933 1.16876,4.093609 1.90265,2.875107 3.76959,3.295008 14.23961,3.20269 7.41267,-0.06536 7.94915,-0.112398 9.25796,-0.811706 z m -35.63135,-0.0098 c 0.2845,-0.32228 1.11838,-1.791373 1.85305,-3.264652 1.85388,-3.717651 9.45272,-20.503953 9.45272,-20.881621 0,-0.503602 -0.93196,-0.715587 -3.12462,-0.710733 -3.79354,0.0084 -3.40545,-0.472217 -8.07064,9.994566 -1.58934,3.565848 -3.12405,6.9365 -3.41045,7.490337 l -0.52073,1.006977 -0.58367,-0.961033 C 19.74119,26.067384 18.26493,22.998085 16.78163,19.775288 12.05777,9.511628 12.00991,9.427771 10.74056,9.189639 9.32388,8.923868 6.04726,9.186039 5.63514,9.598207 c -0.19439,0.194382 0.42967,2.025479 1.64494,4.826597 2.73965,6.314698 8.27616,18.240483 8.93465,19.245471 0.52922,0.807681 0.6781,0.8378 4.14174,0.8378 3.00142,0 3.67794,-0.09645 4.11008,-0.585963 z"
     id="path4804"
     inkscape:connector-curvature="0"
     sodipodi:nodetypes="ccccccccsccsscscsccccccscccsscccccscscsc" />
  <rect
     style="fill:#ffffff;fill-opacity:1;stroke:#808080;stroke-width:0;stroke-linejoin:round;stroke-miterlimit:4;stroke-dasharray:none"
     id="rect4564"
     width="68.191139"
     height="14.749992"
     x="0.026539996"
     y="44.957588" />
  <path
     style="fill:#000000;fill-opacity:1;stroke:#808080;stroke-width:0;stroke-miterlimit:4;stroke-dasharray:none"
     d="M 1.97239,59.449373 C 1.51689,59.304111 0.99934,58.980265 0.75098,58.685089 0.33216,58.187342 0.23853,57.864495 0.07723,56.361804 L 3e-5,55.641855 h 1.93198 c 1.9138,0 1.93199,0.0038 1.93199,0.397244 0,0.882417 0.322,0.957954 4.08357,0.957954 3.93705,0 4.21701,-0.07348 4.21701,-1.1068 0,-1.005988 -0.27551,-1.077704 -4.84278,-1.260581 -6.84068,-0.273904 -7.18461,-0.452078 -7.18461,-3.722142 0,-3.690174 1.17011,-4.206353 9.14828,-4.035692 3.185,0.06813 3.7385,0.12092 4.40439,0.420065 1.05071,0.472021 1.49,1.010105 1.69134,2.07175 0.27995,1.476175 0.40167,1.382515 -1.72703,1.328806 -1.86086,-0.04695 -1.90035,-0.05615 -1.9966,-0.465092 -0.1409,-0.598692 -0.90909,-0.713008 -4.37715,-0.651378 -2.67697,0.04757 -2.95724,0.08118 -3.17623,0.381002 -0.13211,0.180854 -0.24019,0.531131 -0.24019,0.778395 0,0.904527 0.22521,0.956584 4.99729,1.154997 4.60419,0.191435 5.49987,0.326765 6.15684,0.930263 0.76768,0.705194 0.9497,1.276226 0.95331,2.990608 0.004,2.090148 -0.30541,2.780715 -1.51997,3.387995 -0.84474,0.422379 -0.86135,0.423603 -6.2678,0.46285 -4.41373,0.03204 -5.56761,-0.0075 -6.21119,-0.212726 z"
     id="path4814"
     inkscape:connector-curvature="0" />
  <path
     style="fill:#000000;fill-opacity:1;stroke:#808080;stroke-width:0;stroke-linejoin:round;stroke-miterlimit:4;stroke-dasharray:none"
     d="m 21.39678,59.476816 c -2.52719,-0.822845 -2.96164,-1.746145 -2.96353,-6.298016 -9.2e-4,-3.566963 0.39189,-4.780233 1.82139,-5.617978 0.66723,-0.391029 1.02404,-0.460047 2.98281,-0.576978 3.03386,-0.181108 6.66541,-0.17661 8.443,0.01046 1.99363,0.2098 2.87189,0.619003 3.51919,1.639687 l 0.51142,0.80641 v 3.871441 c 0,4.189479 -0.0317,4.362352 -0.95894,5.243179 -1.07575,1.021822 -1.3285,1.060246 -7.25696,1.103176 -4.08319,0.02956 -5.58799,-0.0152 -6.09838,-0.181374 z m 9.84971,-3.111606 c 0.55162,-0.315795 0.73776,-1.101066 0.73776,-3.11226 0,-3.153943 -0.0745,-3.229863 -5.032,-3.201288 l -1.91679,0.01105 c -2.65899,0 -2.6785,0.0075 -2.6785,3.339722 -0.0464,0.121419 0,0 0,0 0.049,1.919048 0.10013,2.253702 0.39501,2.580979 0.18635,0.206815 0.49127,0.441784 0.67761,0.52215 0.53383,0.230232 7.38444,0.107226 7.81691,-0.140353 z"
     id="path4816"
     inkscape:connector-curvature="0"
     sodipodi:nodetypes="cccscccscccccsscccccc" />
  <path
     style="fill:#000000;fill-opacity:1;stroke:#808080;stroke-width:0;stroke-miterlimit:4;stroke-dasharray:none"
     d="m 38.42144,53.354958 v -6.35249 h 6.69129 6.69128 v 1.332173 1.332171 l -0.78592,0.10772 c -0.43228,0.05927 -2.56122,0.107723 -4.73102,0.107723 h -3.94506 l -0.11263,0.901474 c -0.0618,0.495811 -0.0865,1.086594 -0.0546,1.312849 l 0.0581,0.411373 4.53143,0.04513 4.53146,0.04513 v 1.352432 1.352431 h -4.5738 -4.5738 v 2.202197 2.202197 h -1.86338 -1.86341 z"
     id="path4818"
     inkscape:connector-curvature="0" />
  <path
     style="fill:#000000;fill-opacity:1;stroke:#808080;stroke-width:0;stroke-miterlimit:4;stroke-dasharray:none"
     d="m 58.91881,54.794856 v -4.912592 h -2.79509 -2.79511 v -1.439899 -1.439897 h 7.4536 7.45359 v 1.416301 1.416302 l -0.88935,0.106825 c -0.48913,0.05876 -1.74693,0.107486 -2.79508,0.108296 l -1.90576,0.0016 v 4.827892 4.827894 h -1.8634 -1.8634 z"
     id="path4820"
     inkscape:connector-curvature="0" />
  <path
     style="fill:#000000;fill-opacity:1;stroke:#808080;stroke-width:0;stroke-miterlimit:4;stroke-dasharray:none"
     d=""
     id="path4834"
     inkscape:connector-curvature="0" />
  <path
     style="fill:#ffffff;fill-opacity:1;stroke:#808080;stroke-width:0;stroke-linejoin:round;stroke-miterlimit:4;stroke-dasharray:none"
     d="m 23.730071,56.510737 c -0.354428,-0.05478 -0.497783,-0.137521 -0.809036,-0.466949 -0.339716,-0.359551 -0.384416,-0.458139 -0.438445,-0.966998 -0.03309,-0.311645 -0.04688,-1.362123 -0.03065,-2.334395 0.02657,-1.591587 0.04758,-1.798598 0.210806,-2.077126 0.309775,-0.528592 0.442431,-0.544018 4.414897,-0.513392 l 3.535534,0.02726 0.441942,0.220971 c 0.347588,0.173794 0.486161,0.310106 0.649061,0.638468 0.19469,0.392441 0.207285,0.517104 0.209857,2.077127 0.0043,2.63055 -0.195999,3.172656 -1.221912,3.306447 -0.737159,0.09613 -6.443455,0.168746 -6.962051,0.08859 z"
     id="path847"
     inkscape:connector-curvature="0" />
  <path
     style="fill:#ffffff;fill-opacity:1;stroke:#808080;stroke-width:0;stroke-linejoin:round;stroke-miterlimit:4;stroke-dasharray:none"
     d="M 17.61123,34.406272 C 16.873123,34.321056 16.687962,34.23543 16.386172,33.839763 15.796051,33.066075 9.9691502,20.560591 7.2786198,14.293465 6.3729197,12.183792 5.6434661,10.204582 5.6434661,9.8568376 c 0,-0.2728311 0.1749717,-0.3709213 0.939896,-0.5269115 0.9008249,-0.1837042 3.8762179,-0.2169212 4.4284149,-0.049438 0.94364,0.2862088 1.346787,1.0119739 5.237779,9.4293049 2.331803,5.044358 3.57655,7.613463 4.044239,8.34714 l 0.360723,0.565875 0.495603,-0.988202 c 0.56704,-1.130645 1.572882,-3.335237 3.945164,-8.646958 2.636663,-5.903691 3.24142,-7.101621 4.025274,-7.973456 0.215414,-0.2395924 0.579715,-0.5282392 0.809556,-0.641437 0.405497,-0.1997086 0.484757,-0.2056487 2.671797,-0.2002351 2.352877,0.00582 2.82232,0.070261 3.041327,0.4174598 0.114254,0.1811294 0.05573,0.3471153 -0.87932,2.4937763 -3.342319,7.673237 -8.261892,18.268739 -9.537925,20.542258 -1.007527,1.795116 -0.963441,1.777147 -4.468121,1.821112 -1.385487,0.01738 -2.801476,-10e-4 -3.146643,-0.04085 z"
     id="path849"
     inkscape:connector-curvature="0" />
  <path
     style="fill:#ffffff;fill-opacity:1;stroke:#808080;stroke-width:0;stroke-linejoin:round;stroke-miterlimit:4;stroke-dasharray:none"
     d="m 45.771776,34.655071 c -3.27894,-0.07055 -4.618756,-0.216667 -6.006503,-0.65506 -1.206798,-0.381231 -2.015369,-0.97397 -2.827927,-2.073071 -0.94911,-1.283807 -1.271668,-2.39529 -1.551871,-5.347495 -0.460368,-4.850423 -0.102263,-11.130803 0.767219,-13.455363 0.421749,-1.127546 2.318444,-2.951945 3.645278,-3.5063319 0.594931,-0.2485785 2.579503,-0.3324091 7.787228,-0.3289419 4.905177,0.00327 8.554182,0.104586 10.155494,0.2819827 1.326741,0.1469791 2.776022,0.9491091 3.654764,2.0227931 0.946318,1.15625 1.432042,2.737735 1.434107,4.66936 0.0017,1.588518 -0.165726,1.886687 -1.148975,2.046209 -0.732807,0.11889 -2.924494,0.121656 -3.542414,0.0045 -0.680647,-0.129082 -1.057277,-0.419974 -1.828934,-1.412586 -1.060909,-1.364689 -0.700604,-1.275995 -5.322554,-1.310228 -2.149926,-0.01592 -4.507294,0.01387 -5.347495,0.06759 -1.317455,0.08423 -1.559822,0.123958 -1.966982,0.322408 -0.686177,0.334443 -1.038258,0.901533 -1.312084,2.113352 -0.302406,1.338303 -0.240832,7.093483 0.0891,8.328369 0.238357,0.892119 0.719652,1.374029 1.605177,1.607224 1.864176,0.490916 7.728003,0.568733 10.278559,0.136405 1.429502,-0.242305 1.586898,-0.367287 2.443503,-1.94027 0.395874,-0.726945 0.624881,-1.00357 0.927732,-1.120639 0.372416,-0.143959 2.553816,-0.242088 3.518623,-0.158283 1.625799,0.141219 1.961455,0.434393 1.961455,1.713211 0,2.030176 -0.361393,4.088043 -0.897817,5.11241 -0.593271,1.132923 -2.029219,2.225197 -3.398215,2.584901 -1.046508,0.27497 -7.433021,0.419864 -13.116472,0.29758 z"
     id="path851"
     inkscape:connector-curvature="0" />
</svg>
