<?xml version="1.0" encoding="UTF-8" standalone="no"?>
<!-- Created with Inkscape (http://www.inkscape.org/) -->

<svg
   xmlns:dc="http://purl.org/dc/elements/1.1/"
   xmlns:cc="http://creativecommons.org/ns#"
   xmlns:rdf="http://www.w3.org/1999/02/22-rdf-syntax-ns#"
   xmlns:svg="http://www.w3.org/2000/svg"
   xmlns="http://www.w3.org/2000/svg"
   xmlns:sodipodi="http://sodipodi.sourceforge.net/DTD/sodipodi-0.dtd"
   xmlns:inkscape="http://www.inkscape.org/namespaces/inkscape"
   version="1.1"
   id="svg3713"
   width="68.235802"
   height="59.707577"
   viewBox="0 0 68.235802 59.707577"
   sodipodi:docname="vcsoft-small.svg"
   inkscape:version="0.92.4 (5da689c313, 2019-01-14)">
  <metadata
     id="metadata3719">
    <rdf:RDF>
      <cc:Work
         rdf:about="">
        <dc:format>image/svg+xml</dc:format>
        <dc:type
           rdf:resource="http://purl.org/dc/dcmitype/StillImage" />
        <dc:title />
      </cc:Work>
    </rdf:RDF>
  </metadata>
  <defs
     id="defs3717" />
  <sodipodi:namedview
     pagecolor="#ffffff"
     bordercolor="#666666"
     borderopacity="1"
     objecttolerance="10"
     gridtolerance="10"
     guidetolerance="10"
     inkscape:pageopacity="0"
     inkscape:pageshadow="2"
     inkscape:window-width="1920"
     inkscape:window-height="1009"
     id="namedview3715"
     showgrid="false"
     inkscape:zoom="5.6568543"
     inkscape:cx="43.187159"
     inkscape:cy="33.37238"
     inkscape:window-x="-8"
     inkscape:window-y="-8"
     inkscape:window-maximized="1"
     inkscape:current-layer="svg3713"
     showguides="true"
     inkscape:guide-bbox="true">
    <sodipodi:guide
       position="0,64.451442"
       orientation="1,0"
       id="guide4890"
       inkscape:locked="false" />
    <sodipodi:guide
       position="62.9325,49.248642"
       orientation="1,0"
       id="guide4892"
       inkscape:locked="false" />
    <sodipodi:guide
       position="4.94975,38.642042"
       orientation="1,0"
       id="guide4894"
       inkscape:locked="false" />
    <sodipodi:guide
       position="68.2358,65.688872"
       orientation="1,0"
       id="guide4896"
       inkscape:locked="false" />
  </sodipodi:namedview>
  <path
     style="fill:#29407c;fill-opacity:1;stroke:none;stroke-width:0.33483607"
     d="M 0,0.02299 68.2358,0 68.2348,45.232025 0.02654,44.957587 Z m 60.0979,33.908922 c 2.05118,-1.095966 2.88152,-2.668873 3.06289,-5.802021 0.13832,-2.389211 0.0934,-2.625237 -0.56683,-2.978579 -0.39918,-0.213637 -1.71615,-0.339924 -2.97088,-0.284886 -2.19448,0.09626 -2.2689,0.129046 -2.82592,1.244957 -0.31465,0.630351 -0.76842,1.342422 -1.00838,1.582381 -0.591,0.590993 -5.48608,0.933326 -9.07317,0.634523 -4.30834,-0.358882 -4.38755,-0.45786 -4.52451,-5.653122 -0.12607,-4.782088 0.32337,-6.392499 1.90828,-6.837786 0.48451,-0.136124 3.19217,-0.247499 6.01703,-0.247499 5.08926,0 5.14177,0.0076 5.75866,0.83709 1.44497,1.942895 1.57039,2.009017 3.81064,2.009017 3.10207,0 3.20961,-0.07713 3.20097,-2.295968 C 62.87388,12.861357 61.42024,10.663751 58.60396,9.665602 57.22629,9.177331 41.68686,9.02522 40.04762,9.48396 c -1.1313,0.316591 -3.14976,2.054493 -3.76262,3.239635 -1.06593,2.061297 -1.48265,9.250631 -0.85343,14.723724 0.23835,2.073194 0.54691,3.153933 1.16876,4.093609 1.90265,2.875107 3.76959,3.295008 14.23961,3.20269 7.41267,-0.06536 7.94915,-0.112398 9.25796,-0.811706 z m -35.63135,-0.0098 c 0.2845,-0.32228 1.11838,-1.791373 1.85305,-3.264652 1.85388,-3.717651 9.45272,-20.503953 9.45272,-20.881621 0,-0.503602 -0.93196,-0.715587 -3.12462,-0.710733 -3.79354,0.0084 -3.40545,-0.472217 -8.07064,9.994566 -1.58934,3.565848 -3.12405,6.9365 -3.41045,7.490337 l -0.52073,1.006977 -0.58367,-0.961033 C 19.74119,26.067384 18.26493,22.998085 16.78163,19.775288 12.05777,9.511628 12.00991,9.427771 10.74056,9.189639 9.32388,8.923868 6.04726,9.186039 5.63514,9.598207 c -0.19439,0.194382 0.42967,2.025479 1.64494,4.826597 2.73965,6.314698 8.27616,18.240483 8.93465,19.245471 0.52922,0.807681 0.6781,0.8378 4.14174,0.8378 3.00142,0 3.67794,-0.09645 4.11008,-0.585963 z"
     id="path4804"
     inkscape:connector-curvature="0"
     sodipodi:nodetypes="ccccccccsccsscscsccccccscccsscccccscscsc" />
  <path
     style="fill:#000000;fill-opacity:1;stroke:#808080;stroke-width:0;stroke-miterlimit:4;stroke-dasharray:none"
     d="M 1.97239,59.449373 C 1.51689,59.304111 0.99934,58.980265 0.75098,58.685089 0.33216,58.187342 0.23853,57.864495 0.07723,56.361804 L 3e-5,55.641855 h 1.93198 c 1.9138,0 1.93199,0.0038 1.93199,0.397244 0,0.882417 0.322,0.957954 4.08357,0.957954 3.93705,0 4.21701,-0.07348 4.21701,-1.1068 0,-1.005988 -0.27551,-1.077704 -4.84278,-1.260581 -6.84068,-0.273904 -7.18461,-0.452078 -7.18461,-3.722142 0,-3.690174 1.17011,-4.206353 9.14828,-4.035692 3.185,0.06813 3.7385,0.12092 4.40439,0.420065 1.05071,0.472021 1.49,1.010105 1.69134,2.07175 0.27995,1.476175 0.40167,1.382515 -1.72703,1.328806 -1.86086,-0.04695 -1.90035,-0.05615 -1.9966,-0.465092 -0.1409,-0.598692 -0.90909,-0.713008 -4.37715,-0.651378 -2.67697,0.04757 -2.95724,0.08118 -3.17623,0.381002 -0.13211,0.180854 -0.24019,0.531131 -0.24019,0.778395 0,0.904527 0.22521,0.956584 4.99729,1.154997 4.60419,0.191435 5.49987,0.326765 6.15684,0.930263 0.76768,0.705194 0.9497,1.276226 0.95331,2.990608 0.004,2.090148 -0.30541,2.780715 -1.51997,3.387995 -0.84474,0.422379 -0.86135,0.423603 -6.2678,0.46285 -4.41373,0.03204 -5.56761,-0.0075 -6.21119,-0.212726 z"
     id="path4814"
     inkscape:connector-curvature="0" />
  <path
     style="fill:#000000;fill-opacity:1;stroke:#808080;stroke-width:0;stroke-linejoin:round;stroke-miterlimit:4;stroke-dasharray:none"
     d="m 21.39678,59.476816 c -2.52719,-0.822845 -2.96164,-1.746145 -2.96353,-6.298016 -9.2e-4,-3.566963 0.39189,-4.780233 1.82139,-5.617978 0.66723,-0.391029 1.02404,-0.460047 2.98281,-0.576978 3.03386,-0.181108 6.66541,-0.17661 8.443,0.01046 1.99363,0.2098 2.87189,0.619003 3.51919,1.639687 l 0.51142,0.80641 v 3.871441 c 0,4.189479 -0.0317,4.362352 -0.95894,5.243179 -1.07575,1.021822 -1.3285,1.060246 -7.25696,1.103176 -4.08319,0.02956 -5.58799,-0.0152 -6.09838,-0.181374 z m 9.84971,-3.111606 c 0.55162,-0.315795 0.73776,-1.101066 0.73776,-3.11226 0,-3.153943 -0.0745,-3.229863 -5.032,-3.201288 l -1.91679,0.01105 c -2.65899,0 -2.6785,0.0075 -2.6785,3.339722 -0.0464,0.121419 0,0 0,0 0.049,1.919048 0.10013,2.253702 0.39501,2.580979 0.18635,0.206815 0.49127,0.441784 0.67761,0.52215 0.53383,0.230232 7.38444,0.107226 7.81691,-0.140353 z"
     id="path4816"
     inkscape:connector-curvature="0"
     sodipodi:nodetypes="cccscccscccccsscccccc" />
  <path
     style="fill:#000000;fill-opacity:1;stroke:#808080;stroke-width:0;stroke-miterlimit:4;stroke-dasharray:none"
     d="m 38.42144,53.354958 v -6.35249 h 6.69129 6.69128 v 1.332173 1.332171 l -0.78592,0.10772 c -0.43228,0.05927 -2.56122,0.107723 -4.73102,0.107723 h -3.94506 l -0.11263,0.901474 c -0.0618,0.495811 -0.0865,1.086594 -0.0546,1.312849 l 0.0581,0.411373 4.53143,0.04513 4.53146,0.04513 v 1.352432 1.352431 h -4.5738 -4.5738 v 2.202197 2.202197 h -1.86338 -1.86341 z"
     id="path4818"
     inkscape:connector-curvature="0" />
  <path
     style="fill:#000000;fill-opacity:1;stroke:#808080;stroke-width:0;stroke-miterlimit:4;stroke-dasharray:none"
     d="m 58.91881,54.794856 v -4.912592 h -2.79509 -2.79511 v -1.439899 -1.439897 h 7.4536 7.45359 v 1.416301 1.416302 l -0.88935,0.106825 c -0.48913,0.05876 -1.74693,0.107486 -2.79508,0.108296 l -1.90576,0.0016 v 4.827892 4.827894 h -1.8634 -1.8634 z"
     id="path4820"
     inkscape:connector-curvature="0" />
  <path
     style="fill:#000000;fill-opacity:1;stroke:#808080;stroke-width:0;stroke-miterlimit:4;stroke-dasharray:none"
     d=""
     id="path4834"
     inkscape:connector-curvature="0" />
  <path
     style="fill:#ffffff;fill-opacity:1;stroke:#808080;stroke-width:0;stroke-linejoin:round;stroke-miterlimit:4;stroke-dasharray:none"
     d="M -7.4441638,58.858365 V 43.622424 h 3.7344077 3.73440765 v 0.673961 0.673961 l 0.45851455,-8.4e-5 c 1.1028221,-2.01e-4 39.2283619,0.154315 41.3436489,0.167557 l 2.347816,0.0147 v 0.914249 0.914249 l -2.878146,0.0056 -2.878145,0.0056 -0.0056,6.358436 -0.0056,6.358437 h 1.87829 1.87829 v -2.19866 -2.19866 h 1.005417 1.005418 v 9.391262 9.391263 H 18.365234 -7.4441638 V 58.858364 Z m 16.5175724,0.806512 c 4.3638534,-0.03801 4.5848304,-0.05625 5.3488934,-0.441483 1.252529,-0.631519 1.555388,-1.290283 1.556227,-3.385048 4.64e-4,-1.132402 -0.09231,-1.776695 -0.320779,-2.228039 -0.209681,-0.414222 -0.625287,-0.854145 -1.010241,-1.069353 -0.316886,-0.177153 -0.851555,-0.30837 -1.62977,-0.399975 C 12.1861,52.043085 11.351292,51.990412 8.9960688,51.887227 5.8828986,51.750835 5.0704921,51.689949 4.5217996,51.5519 4.21958,51.475862 4.0283337,51.35923 3.9465532,51.201084 c -0.089678,-0.173417 -0.094248,-0.535583 -0.010543,-0.835483 0.084458,-0.3026 0.2007958,-0.478934 0.3728307,-0.565102 0.2811187,-0.140806 0.74142,-0.172714 3.096238,-0.214633 2.4363406,-0.04337 3.4172461,0.0165 3.8818441,0.236941 0.194778,0.09242 0.304463,0.212051 0.352023,0.383955 0.09318,0.336779 0.177886,0.393281 0.660637,0.440649 0.334643,0.03283 1.879448,0.07398 2.441728,0.06504 0.478148,-0.0076 0.501414,-0.01002 0.60767,-0.06315 0.14254,-0.07127 0.187744,-0.157395 0.18779,-0.357789 0,-0.151752 -0.121748,-0.862567 -0.201821,-1.177958 -0.216923,-0.854433 -0.629361,-1.341569 -1.4884,-1.757979 -0.745626,-0.361433 -1.142516,-0.407633 -4.1875682,-0.487448 -1.3228392,-0.03467 -3.9147513,-0.03476 -4.574097,-1.55e-4 -1.541942,0.08093 -2.45787,0.220087 -3.1500469,0.478604 -1.08536092,0.405366 -1.574645,1.064415 -1.74655812,2.352556 -0.0482883,0.361824 -0.0688983,1.799976 -0.0325963,2.274571 0.0942403,1.232057 0.43299021,1.750212 1.35737192,2.076247 0.8697981,0.306783 2.0642254,0.431371 5.5274216,0.576554 3.141633,0.131702 3.929421,0.19451 4.485708,0.357634 0.273482,0.0802 0.456968,0.20639 0.541764,0.372604 0.103915,0.20369 0.117516,0.791233 0.02404,1.038709 -0.119822,0.317246 -0.444318,0.455593 -1.23977,0.52857 -0.762056,0.06991 -4.4263695,0.08553 -5.4248343,0.02312 -0.9820438,-0.06138 -1.3283615,-0.17104 -1.4766916,-0.467577 -0.05427,-0.108495 -0.064145,-0.158737 -0.075162,-0.382446 -0.020923,-0.424847 -0.026199,-0.427244 -1.0003599,-0.454468 -0.8459224,-0.02364 -2.86708923,-0.0271 -2.87866832,-0.0049 -0.01168008,0.02236 0.12610255,1.245609 0.18237676,1.619155 0.11440037,0.759384 0.26146532,1.110531 0.62616448,1.495094 0.29921528,0.315513 0.85149358,0.631972 1.29858278,0.744098 0.7132991,0.178888 2.062145,0.211559 6.9697772,0.168815 z m 20.7933584,-0.02202 c 2.615409,-0.04592 3.403261,-0.129951 4.02167,-0.428947 0.27156,-0.131297 0.454254,-0.265944 0.817592,-0.602567 0.559739,-0.518584 0.72857,-0.774737 0.849867,-1.289426 0.136516,-0.579263 0.155478,-1.164027 0.155518,-4.795901 V 49.419845 L 35.41558,48.953356 c -0.345879,-0.545408 -0.452093,-0.688822 -0.67081,-0.905758 -0.7809,-0.774541 -2.032674,-1.073153 -4.933279,-1.176838 -0.785072,-0.02806 -3.178177,-0.02815 -4.143203,-1.55e-4 -2.150619,0.0624 -3.850077,0.176698 -4.45849,0.29987 -0.545135,0.110361 -1.17423,0.449539 -1.616134,0.871343 -0.740874,0.707171 -1.040559,1.674982 -1.141593,3.686676 -0.03059,0.609039 -0.01518,3.115659 0.0221,3.594337 0.112337,1.442643 0.294958,2.17005 0.696064,2.772525 0.245881,0.369322 0.65757,0.718776 1.123502,0.953665 0.475408,0.239665 1.123262,0.463722 1.485468,0.513743 0.233405,0.03223 0.864496,0.07522 1.281631,0.0873 0.574993,0.01665 5.759907,0.01116 6.805903,-0.0072 z"
     id="path843"
     inkscape:connector-curvature="0" />
  <path
     style="fill:#ffffff;fill-opacity:1;stroke:#808080;stroke-width:0;stroke-linejoin:round;stroke-miterlimit:4;stroke-dasharray:none"
     d="M -9.0247,57.398333 V 26.926451 h 4.5049463 4.50494636 l 0.0139079039,8.989841 C 0.00675013,40.860705 0.02750593,44.920626 0.04522514,44.93834 c 0.01771921,0.01771 8.81788396,0.0679 19.55592186,0.111513 10.738038,0.04362 24.49555,0.09949 30.572248,0.124154 6.076699,0.02467 12.62959,0.05072 14.561981,0.05789 l 3.513436,0.01304 0.01116,-9.159243 0.01115,-9.159242 H 81.219908 94.168695 V 57.398333 87.870216 H 42.571998 -9.0247 Z m 51.176853,0.116194 v -2.204 l 4.574097,0.0229 4.574097,0.0229 V 53.96331 52.570295 l -4.010621,-0.02828 c -2.205842,-0.01555 -4.242031,-0.04003 -4.524865,-0.05439 l -0.514244,-0.02611 -0.02665,-0.161148 c -0.06391,-0.386478 0.01382,-1.768233 0.12903,-2.293516 l 0.02181,-0.09944 2.750247,-0.001 c 3.25266,-0.0012 5.518416,-0.05677 6.194035,-0.151953 0.265527,-0.03741 0.48926,-0.06801 0.497184,-0.06801 0.0079,0 0.0144,-0.606565 0.0144,-1.347922 v -1.347922 h -6.717514 -6.717515 v 6.363961 6.363961 h 1.878253 1.878252 v -2.204 z m 20.506096,-2.613164 v -4.817165 l 1.115903,-3.98e-4 c 1.397031,-5.26e-4 3.110806,-0.0697 3.833845,-0.154763 0.303835,-0.03574 0.577286,-0.06517 0.60767,-0.06539 0.04305,-3.09e-4 0.05524,-0.31734 0.05524,-1.436712 v -1.43631 h -7.490912 -7.490912 v 1.458408 1.458407 h 2.80633 2.80633 v 4.905553 4.905554 h 1.878252 1.878252 v -4.817165 z m -50.779105,4.729222 c 1.642174,-0.05169 1.894297,-0.09316 2.552412,-0.419853 0.563358,-0.279652 0.97761,-0.627121 1.170774,-0.982026 0.257917,-0.473879 0.387492,-1.284334 0.386106,-2.414997 -0.0013,-1.079331 -0.1014,-1.732912 -0.341316,-2.229041 C 15.483647,53.246617 14.900197,52.656623 14.574989,52.500512 13.867446,52.160868 12.797554,52.0479 8.4319985,51.85189 4.111094,51.657883 3.8428985,51.590811 3.8925343,50.716632 c 0.013454,-0.236949 0.050675,-0.383032 0.1463839,-0.574524 0.1557456,-0.311611 0.3018392,-0.39566 0.7982184,-0.459219 0.5477209,-0.07013 4.9469663,-0.106571 5.5275314,-0.04578 0.846766,0.08866 1.143682,0.232079 1.288771,0.622506 0.03906,0.105119 0.121003,0.228342 0.182086,0.27383 0.152618,0.11365 0.795859,0.164901 2.231231,0.177775 1.533244,0.01375 1.548463,0.0058 1.43731,-0.75437 -0.07882,-0.539014 -0.237576,-1.143196 -0.380192,-1.446891 -0.07843,-0.167023 -0.233755,-0.371829 -0.434885,-0.57344 -0.253472,-0.254078 -0.400977,-0.356883 -0.776913,-0.541477 -0.738758,-0.36275 -1.060448,-0.416608 -2.96101,-0.495741 -1.6605612,-0.06914 -5.7428256,-0.07121 -6.5407373,-0.0033 -1.3827048,0.11765 -2.1775896,0.288346 -2.8211978,0.605833 -1.16044397,0.572438 -1.51214915,1.508753 -1.45142857,3.864018 0.0345329,1.339494 0.13544851,1.734243 0.55740829,2.180404 0.68122228,0.720292 1.76081958,0.8944 6.89719858,1.112321 3.0177028,0.128032 3.8305128,0.216688 4.2291908,0.461296 0.237964,0.146003 0.295408,0.279428 0.31302,0.727054 0.01388,0.352736 0.0032,0.426917 -0.08663,0.601254 -0.0864,0.167712 -0.140616,0.213976 -0.345972,0.295254 -0.483282,0.191276 -0.863753,0.212978 -3.7339623,0.212978 -2.8539311,0 -3.2724058,-0.02335 -3.6977756,-0.206341 C 3.997271,56.632647 3.9161632,56.500875 3.8897713,56.132013 3.8596017,55.710357 3.8241341,55.686065 3.1812821,55.64676 2.8971392,55.629387 2.060749,55.613665 1.3226365,55.611821 l -1.34202192,-0.0034 0.03041753,0.298311 c 0.20290605,1.98994 0.3318072,2.409546 0.90244369,2.937693 0.5582082,0.516644 1.2078113,0.738062 2.3478044,0.80025 0.616655,0.03364 7.4564848,0.02242 8.6178638,-0.01414 z m 18.760427,-7.69e-4 c 2.832114,-0.08346 3.292708,-0.21497 4.261912,-1.216825 0.699604,-0.723176 0.741588,-0.89061 0.797401,-3.180172 0.02193,-0.899351 0.04104,-2.565478 0.04249,-3.702505 l 0.0026,-2.06732 -0.34037,-0.536197 c -0.566279,-0.892103 -0.989704,-1.268432 -1.73193,-1.539311 -1.114706,-0.406818 -2.480477,-0.528624 -5.926828,-0.528581 -3.554959,4.4e-5 -6.054422,0.143403 -6.850097,0.392892 -0.754523,0.236586 -1.561277,0.91587 -1.894264,1.594964 -0.227929,0.464836 -0.376624,1.044375 -0.478744,1.865907 -0.09979,0.802789 -0.114273,4.141919 -0.02181,5.028384 0.233717,2.24068 0.833942,3.056843 2.711238,3.686642 0.322333,0.108137 0.868289,0.18708 1.495541,0.21625 0.742996,0.03455 6.63724,0.02406 7.932854,-0.01413 z"
     id="path845"
     inkscape:connector-curvature="0" />
  <path
     style="fill:#ffffff;fill-opacity:1;stroke:#808080;stroke-width:0;stroke-linejoin:round;stroke-miterlimit:4;stroke-dasharray:none"
     d="m 23.730071,56.510737 c -0.354428,-0.05478 -0.497783,-0.137521 -0.809036,-0.466949 -0.339716,-0.359551 -0.384416,-0.458139 -0.438445,-0.966998 -0.03309,-0.311645 -0.04688,-1.362123 -0.03065,-2.334395 0.02657,-1.591587 0.04758,-1.798598 0.210806,-2.077126 0.309775,-0.528592 0.442431,-0.544018 4.414897,-0.513392 l 3.535534,0.02726 0.441942,0.220971 c 0.347588,0.173794 0.486161,0.310106 0.649061,0.638468 0.19469,0.392441 0.207285,0.517104 0.209857,2.077127 0.0043,2.63055 -0.195999,3.172656 -1.221912,3.306447 -0.737159,0.09613 -6.443455,0.168746 -6.962051,0.08859 z"
     id="path847"
     inkscape:connector-curvature="0" />
  <path
     style="fill:#ffffff;fill-opacity:1;stroke:#808080;stroke-width:0;stroke-linejoin:round;stroke-miterlimit:4;stroke-dasharray:none"
     d="M 17.61123,34.406272 C 16.873123,34.321056 16.687962,34.23543 16.386172,33.839763 15.796051,33.066075 9.9691502,20.560591 7.2786198,14.293465 6.3729197,12.183792 5.6434661,10.204582 5.6434661,9.8568376 c 0,-0.2728311 0.1749717,-0.3709213 0.939896,-0.5269115 0.9008249,-0.1837042 3.8762179,-0.2169212 4.4284149,-0.049438 0.94364,0.2862088 1.346787,1.0119739 5.237779,9.4293049 2.331803,5.044358 3.57655,7.613463 4.044239,8.34714 l 0.360723,0.565875 0.495603,-0.988202 c 0.56704,-1.130645 1.572882,-3.335237 3.945164,-8.646958 2.636663,-5.903691 3.24142,-7.101621 4.025274,-7.973456 0.215414,-0.2395924 0.579715,-0.5282392 0.809556,-0.641437 0.405497,-0.1997086 0.484757,-0.2056487 2.671797,-0.2002351 2.352877,0.00582 2.82232,0.070261 3.041327,0.4174598 0.114254,0.1811294 0.05573,0.3471153 -0.87932,2.4937763 -3.342319,7.673237 -8.261892,18.268739 -9.537925,20.542258 -1.007527,1.795116 -0.963441,1.777147 -4.468121,1.821112 -1.385487,0.01738 -2.801476,-10e-4 -3.146643,-0.04085 z"
     id="path849"
     inkscape:connector-curvature="0" />
  <path
     style="fill:#ffffff;fill-opacity:1;stroke:#808080;stroke-width:0;stroke-linejoin:round;stroke-miterlimit:4;stroke-dasharray:none"
     d="m 45.771776,34.655071 c -3.27894,-0.07055 -4.618756,-0.216667 -6.006503,-0.65506 -1.206798,-0.381231 -2.015369,-0.97397 -2.827927,-2.073071 -0.94911,-1.283807 -1.271668,-2.39529 -1.551871,-5.347495 -0.460368,-4.850423 -0.102263,-11.130803 0.767219,-13.455363 0.421749,-1.127546 2.318444,-2.951945 3.645278,-3.5063319 0.594931,-0.2485785 2.579503,-0.3324091 7.787228,-0.3289419 4.905177,0.00327 8.554182,0.104586 10.155494,0.2819827 1.326741,0.1469791 2.776022,0.9491091 3.654764,2.0227931 0.946318,1.15625 1.432042,2.737735 1.434107,4.66936 0.0017,1.588518 -0.165726,1.886687 -1.148975,2.046209 -0.732807,0.11889 -2.924494,0.121656 -3.542414,0.0045 -0.680647,-0.129082 -1.057277,-0.419974 -1.828934,-1.412586 -1.060909,-1.364689 -0.700604,-1.275995 -5.322554,-1.310228 -2.149926,-0.01592 -4.507294,0.01387 -5.347495,0.06759 -1.317455,0.08423 -1.559822,0.123958 -1.966982,0.322408 -0.686177,0.334443 -1.038258,0.901533 -1.312084,2.113352 -0.302406,1.338303 -0.240832,7.093483 0.0891,8.328369 0.238357,0.892119 0.719652,1.374029 1.605177,1.607224 1.864176,0.490916 7.728003,0.568733 10.278559,0.136405 1.429502,-0.242305 1.586898,-0.367287 2.443503,-1.94027 0.395874,-0.726945 0.624881,-1.00357 0.927732,-1.120639 0.372416,-0.143959 2.553816,-0.242088 3.518623,-0.158283 1.625799,0.141219 1.961455,0.434393 1.961455,1.713211 0,2.030176 -0.361393,4.088043 -0.897817,5.11241 -0.593271,1.132923 -2.029219,2.225197 -3.398215,2.584901 -1.046508,0.27497 -7.433021,0.419864 -13.116472,0.29758 z"
     id="path851"
     inkscape:connector-curvature="0" />
  <path
     style="fill:#ffffff;fill-opacity:1;stroke:#808080;stroke-width:0;stroke-linejoin:round;stroke-miterlimit:4;stroke-dasharray:none"
     d="M -11.540056,53.630226 V 42.856789 h 5.7812499 5.78125 l 4.688e-5,0.800781 c 3.125e-5,0.44043 0.0046045,0.91054 0.01016859,1.044689 l 0.01011656,0.243908 0.92342515,0.01032 c 1.05992782,0.01184 5.15285062,0.03164 13.28280092,0.06426 3.128125,0.01255 6.814257,0.02761 8.191406,0.03346 l 2.503906,0.01064 v 0.916981 0.916981 l -0.316406,0.01074 c -0.871346,0.02958 -2.251821,0.115757 -2.800781,0.174837 -0.626641,0.06744 -0.948433,0.149105 -1.322508,0.335635 -0.434792,0.216805 -0.77746,0.473494 -1.080635,0.809492 -0.609075,0.675013 -0.880709,1.655501 -0.965939,3.486651 -0.02346,0.504114 -0.02349,2.710646 0,3.195312 0.03354,0.693045 0.08843,1.244021 0.167341,1.679688 0.246366,1.360116 0.775739,2.067096 1.928342,2.575309 0.269156,0.11868 0.691399,0.273 0.883584,0.322934 0.4326,0.1124 1.069536,0.154472 2.628135,0.1736 l 0.878906,0.01079 v 2.364935 2.364936 H 6.7021657 -11.540056 Z m 21.4687498,6.023455 c 3.4923092,-0.03351 3.7691982,-0.06176 4.5468752,-0.463891 1.202472,-0.621784 1.500101,-1.287866 1.499776,-3.356439 -2.18e-4,-1.374178 -0.131679,-2.02603 -0.510493,-2.53125 C 15.337694,53.132513 14.993833,52.784343 14.842756,52.672209 14.206645,52.200068 13.185272,52.066347 8.7958813,51.880531 5.621661,51.746156 4.8041423,51.674986 4.3108173,51.49008 4.0227989,51.382125 3.9136706,51.241547 3.8803876,50.935606 c -0.039629,-0.36428 0.086153,-0.824101 0.2826813,-1.033395 0.1905672,-0.202945 0.5088172,-0.25083 1.96875,-0.296226 0.8596781,-0.02673 3.2948562,-0.03736 3.7265624,-0.01626 1.2595267,0.06155 1.6870487,0.213014 1.7902047,0.634254 0.02636,0.107634 0.08266,0.215577 0.144933,0.277847 0.130364,0.130363 0.429448,0.161008 1.955487,0.200359 0.757733,0.01954 1.338971,0.01253 1.476563,-0.0178 0.165415,-0.03646 0.263515,-0.112784 0.296187,-0.230423 0.03614,-0.130122 0.0098,-0.363182 -0.108131,-0.956546 -0.15848,-0.797432 -0.325553,-1.165772 -0.700437,-1.544226 -0.245138,-0.247473 -0.455515,-0.389703 -0.881486,-0.595954 -0.553882,-0.268185 -0.922543,-0.34621 -1.918633,-0.406073 -1.329345,-0.07989 -4.7680611,-0.133181 -6.2054408,-0.09616 -2.414362,0.06218 -3.6479615,0.296999 -4.4742468,0.851702 -0.1729105,0.116078 -0.45669266,0.396562 -0.56280844,0.556268 -0.26198375,0.394287 -0.42181578,0.900062 -0.49132547,1.55476 -0.0636677,0.599674 -0.0598395,1.865979 0.007405,2.449369 0.0584347,0.506962 0.18003968,0.869062 0.38218578,1.138026 0.49613263,0.660126 1.46000493,0.926742 3.94579323,1.091444 0.7439375,0.04929 1.4080765,0.08161 3.2343749,0.157368 1.7548328,0.0728 2.5883456,0.126678 3.1542746,0.203898 0.434707,0.05931 0.664938,0.117366 0.867432,0.218717 0.206339,0.103276 0.318345,0.244369 0.358911,0.452116 0.04758,0.243647 0.03297,0.666398 -0.02941,0.851343 -0.136714,0.40534 -0.578003,0.535778 -1.984025,0.586443 -0.5788079,0.02086 -3.7209954,0.02082 -4.296875,-6.3e-5 C 4.7023483,56.925914 4.2569077,56.83977 4.0393094,56.622172 3.9893754,56.572242 3.9513194,56.51525 3.9301837,56.45876 3.8951987,56.36525 3.8667317,56.160721 3.8659737,55.997414 3.865344,55.861595 3.8258507,55.774898 3.7462693,55.734631 3.5796365,55.650321 3.3069796,55.638701 1.4863251,55.638341 l -1.49705119,-2.91e-4 0.00917797,0.06641 c 0.00504781,0.03652 0.03741125,0.326562 0.0719189,0.644531 0.12426563,1.145038 0.20415047,1.543478 0.38205797,1.905579 0.29232328,0.594974 1.03907045,1.116984 1.82000995,1.272266 0.3297455,0.06557 0.7813217,0.104749 1.4453125,0.125408 0.5790406,0.01801 4.3920515,0.01891 6.2109374,0.0015 z"
     id="path855"
     inkscape:connector-curvature="0" />
  <path
     style="fill:#ffffff;fill-opacity:1;stroke:#808080;stroke-width:0;stroke-linejoin:round;stroke-miterlimit:4;stroke-dasharray:none"
     d="M -11.540056,53.630226 V 42.856789 h 5.779201 5.77920109 l 0.0069564,1.038761 c 0.0038259,0.571319 0.01035546,1.042161 0.01450999,1.046316 0.0041544,0.0042 1.12167262,0.01476 2.48337372,0.02356 2.2980514,0.01486 3.9674545,0.02241 13.9289448,0.06303 2.028125,0.0083 4.768555,0.01978 6.089844,0.02559 l 2.402344,0.01055 v 0.91721 0.917211 l -0.308594,0.0108 c -0.430094,0.01505 -1.125533,0.05098 -1.707031,0.0882 -1.523108,0.09748 -1.952646,0.17658 -2.494305,0.459305 -0.372541,0.194452 -0.64097,0.394385 -0.92757,0.690879 -0.226338,0.23415 -0.360877,0.423018 -0.499196,0.700775 -0.325976,0.654594 -0.491201,1.530232 -0.548671,2.907755 -0.02181,0.522794 -0.01048,3.154512 0.01506,3.498495 0.110093,1.48265 0.291778,2.218596 0.699989,2.835454 0.196895,0.297532 0.523943,0.602955 0.871876,0.814227 0.38698,0.234983 1.170649,0.547421 1.562949,0.623127 0.190907,0.03684 0.520168,0.07155 0.897989,0.09465 0.256117,0.01566 1.64345,0.04482 2.191406,0.04605 l 0.246094,5.47e-4 v 2.367188 2.367187 H 6.7021314 l -18.2421874,7e-6 z m 21.3671873,6.023417 c 3.5175747,-0.03266 3.8339887,-0.06196 4.5624997,-0.422531 1.155032,-0.571675 1.486677,-1.143695 1.571575,-2.710642 0.0234,-0.431902 0.0097,-1.417159 -0.02441,-1.757431 -0.06995,-0.697497 -0.202184,-1.097054 -0.491147,-1.484068 C 15.325023,53.117412 14.994742,52.787917 14.83553,52.670301 14.196927,52.198544 13.210225,52.069953 8.7724438,51.880132 5.8082845,51.753343 4.9786689,51.6874 4.4521314,51.536726 4.0568028,51.423598 3.9177272,51.278058 3.8795792,50.937558 3.8280553,50.477669 4.0295781,49.931411 4.3010517,49.795093 4.600747,49.644605 5.4170376,49.597869 8.0458813,49.580687 c 1.9271641,-0.0126 2.4866297,0.01455 2.9900487,0.145075 0.363728,0.09431 0.535819,0.234063 0.613353,0.498108 0.0547,0.186289 0.1343,0.294043 0.254217,0.344136 0.190766,0.07969 0.793931,0.116529 2.322069,0.141829 0.889867,0.01473 1.117687,-0.0116 1.232579,-0.142452 0.108482,-0.123553 0.106265,-0.261108 -0.01473,-0.913719 -0.181797,-0.980571 -0.370984,-1.380626 -0.863198,-1.825305 -0.308694,-0.278883 -0.946739,-0.604992 -1.410006,-0.720661 -0.434049,-0.108375 -1.069888,-0.162562 -2.38996,-0.203675 -2.4610668,-0.07665 -4.9484918,-0.07985 -6.1171871,-0.0079 -1.4535571,0.08952 -2.3629086,0.265418 -3.0270964,0.58553 -0.2561692,0.123463 -0.4305644,0.233851 -0.6005525,0.380136 -0.47909891,0.412291 -0.74514141,1.009061 -0.84799266,1.902165 -0.0705637,0.612736 -0.0703777,1.878309 3.6719e-4,2.499058 0.0822937,0.72208 0.28943702,1.150134 0.70993905,1.467059 0.51949252,0.391534 1.42046332,0.598854 3.19502282,0.735198 0.7682656,0.05903 1.4112328,0.09311 3.109375,0.164826 2.0198343,0.0853 2.6893577,0.122094 3.2884636,0.180719 1.159444,0.113456 1.538414,0.275301 1.635749,0.698568 0.03333,0.144928 0.03748,0.593195 0.007,0.751603 -0.07141,0.370708 -0.320945,0.537609 -0.936147,0.626145 C 10.660859,56.96432 10.05095,56.9822 7.9521623,56.98227 5.8667499,56.982332 5.3019717,56.96556 4.7568499,56.88734 4.3884407,56.834504 4.1785767,56.75838 4.0459964,56.629527 3.9247201,56.51166 3.8896484,56.400777 3.8682204,56.067469 3.8531782,55.83349 3.8327267,55.778485 3.7439284,55.733184 3.5855706,55.652396 3.2600517,55.638866 1.4636653,55.638412 l -1.47284077,-3.73e-4 0.00804812,0.05859 c 0.00442641,0.03223 0.03645672,0.31875 0.07117844,0.636719 0.10281484,0.94154 0.15604297,1.270791 0.25891515,1.601563 0.17868391,0.574532 0.58822531,1.023723 1.22549276,1.344134 0.505266,0.254044 1.0465754,0.343702 2.2570474,0.373842 0.6959218,0.01733 4.1832249,0.01776 6.0156249,7.5e-4 z"
     id="path857"
     inkscape:connector-curvature="0" />
  <path
     style="fill:#ffffff;fill-opacity:1;stroke:#808080;stroke-width:0;stroke-linejoin:round;stroke-miterlimit:4;stroke-dasharray:none"
     d="M 0.8318614,71.084411 V 58.772888 l 0.1808158,0.154772 c 0.2624381,0.224638 0.7367487,0.460459 1.1267414,0.560202 0.6440426,0.164719 1.545287,0.188632 6.0949669,0.161719 4.0705365,-0.02408 4.9499445,-0.05069 5.4800775,-0.16581 0.121534,-0.02639 0.441002,-0.155529 0.709928,-0.286972 0.827293,-0.404355 1.19343,-0.824311 1.391805,-1.596391 0.134941,-0.525189 0.194845,-1.619863 0.135251,-2.471509 -0.08209,-1.173142 -0.214459,-1.544515 -0.750473,-2.105555 C 14.831788,52.636922 14.642378,52.510141 14.238681,52.379233 13.523975,52.147475 12.452699,52.048562 8.8972981,51.886055 4.9150535,51.704037 4.3479974,51.63668 4.0333879,51.308298 3.923158,51.193243 3.9037425,51.134076 3.888667,50.867277 3.8557,50.283841 4.074281,49.859491 4.4680516,49.742468 c 0.3624753,-0.107722 2.0548486,-0.165433 4.1942298,-0.143027 2.0447056,0.02142 2.3114886,0.04693 2.6848146,0.256748 0.172076,0.09671 0.21059,0.148951 0.328763,0.445917 0.03552,0.08926 0.111775,0.193214 0.169458,0.231009 0.156057,0.102253 0.953511,0.158317 2.25804,0.158749 1.284983,4.42e-4 1.375933,-0.01721 1.423256,-0.275945 0.03429,-0.187465 -0.16849,-1.275619 -0.305586,-1.63985 -0.250222,-0.664779 -0.664603,-1.075645 -1.454711,-1.442374 -0.679502,-0.315392 -1.133954,-0.370317 -3.693746,-0.446429 -1.8757827,-0.05577 -5.2221457,-0.02948 -5.9924369,0.04708 -1.5242929,0.151508 -2.4943363,0.450116 -3.0493904,0.938695 l -0.1988813,0.175062 v -1.551415 -1.551415 l 3.3477086,0.02443 c 1.8412398,0.01344 8.130623,0.04379 13.976407,0.06744 5.845785,0.02365 15.153078,0.06299 20.682874,0.08741 5.529796,0.02443 14.397219,0.06362 19.705382,0.08711 5.308166,0.02349 9.668474,0.03203 9.689572,0.01899 0.02153,-0.01331 0.03836,-5.016461 0.03836,-11.401102 V 22.452165 H 86.148713 104.02526 V 52.924048 83.395931 H 52.428559 0.8318614 Z M 42.153414,57.520242 v -2.187611 h 4.574097 4.574097 v -1.365269 -1.365269 l -0.76235,-0.02632 c -0.419292,-0.01448 -2.452777,-0.03857 -4.518854,-0.05353 -2.066078,-0.01496 -3.766449,-0.03679 -3.778602,-0.04851 -0.04717,-0.04547 -0.0081,-1.694358 0.05011,-2.112942 l 0.06142,-0.441942 3.932756,-0.02846 c 3.694439,-0.02674 4.573262,-0.0551 5.258585,-0.16974 0.145841,-0.0244 0.270137,-0.04447 0.276214,-0.04461 0.0061,-1.32e-4 0.01105,-0.606821 0.01105,-1.348178 v -1.347922 h -6.717515 -6.717514 v 6.363961 6.363961 h 1.878252 1.878253 z M 62.65951,54.890689 v -4.817165 l 1.29268,-4.42e-4 c 1.924117,-6.23e-4 4.082896,-0.123437 4.276851,-0.243306 0.02659,-0.01643 0.04313,-0.568099 0.04313,-1.438261 v -1.411583 h -7.490912 -7.490913 v 1.458408 1.458407 h 2.80633 2.80633 v 4.905553 4.905554 h 1.878253 1.878252 z m -31.742559,4.728074 c 2.559018,-0.08723 3.044628,-0.236165 3.996097,-1.225594 0.770296,-0.801028 0.767853,-0.783966 0.811545,-5.667995 l 0.02906,-3.248271 -0.290948,-0.456073 c -0.586858,-0.919922 -0.969166,-1.289101 -1.614535,-1.559088 -1.117018,-0.4673 -2.363922,-0.588925 -6.057862,-0.590894 -3.20249,-0.0017 -5.607226,0.111975 -6.568428,0.310516 -0.935402,0.193213 -1.801712,0.851082 -2.208108,1.67682 -0.355356,0.722033 -0.486416,1.469859 -0.549913,3.137786 -0.05131,1.347699 0.0067,3.548048 0.112826,4.277615 0.249211,1.713699 0.871424,2.49797 2.440911,3.076658 0.448781,0.165471 0.774626,0.224629 1.469411,0.266778 0.834732,0.05064 6.958369,0.0519 8.429945,0.0017 z"
     id="path859"
     inkscape:connector-curvature="0" />
</svg>
